<?xml version="1.0" encoding="UTF-8" standalone="no"?>
<!-- Created with Inkscape (http://www.inkscape.org/) -->

<svg
   width="4.1603608in"
   height="3.2196264in"
   viewBox="0 0 105.67317 81.77851"
   version="1.1"
   id="svg5"
   inkscape:version="1.2.2 (b0a8486541, 2022-12-01)"
   sodipodi:docname="mcee_vs_cox.svg"
   inkscape:export-filename="../thesis/figs/mckee_vs_cox.pdf"
   inkscape:export-xdpi="300"
   inkscape:export-ydpi="300"
   xmlns:inkscape="http://www.inkscape.org/namespaces/inkscape"
   xmlns:sodipodi="http://sodipodi.sourceforge.net/DTD/sodipodi-0.dtd"
   xmlns:xlink="http://www.w3.org/1999/xlink"
   xmlns="http://www.w3.org/2000/svg"
   xmlns:svg="http://www.w3.org/2000/svg">
  <sodipodi:namedview
     id="namedview7"
     pagecolor="#ffffff"
     bordercolor="#666666"
     borderopacity="1.0"
     inkscape:showpageshadow="2"
     inkscape:pageopacity="0.0"
     inkscape:pagecheckerboard="0"
     inkscape:deskcolor="#d1d1d1"
     inkscape:document-units="mm"
     showgrid="false"
     inkscape:zoom="1.1893044"
     inkscape:cx="335.91064"
     inkscape:cy="103.84221"
     inkscape:window-width="2256"
     inkscape:window-height="1427"
     inkscape:window-x="0"
     inkscape:window-y="0"
     inkscape:window-maximized="1"
     inkscape:current-layer="layer1" />
  <defs
     id="defs2">
    <linearGradient
       inkscape:collect="always"
       id="linearGradient2210">
      <stop
         style="stop-color:#800000;stop-opacity:1"
         offset="0"
         id="stop2206" />
      <stop
         style="stop-color:#800000;stop-opacity:0;"
         offset="1"
         id="stop2208" />
    </linearGradient>
    <radialGradient
       inkscape:collect="always"
       xlink:href="#linearGradient2210"
       id="radialGradient2212"
       cx="84.99073"
       cy="28.832737"
       fx="84.99073"
       fy="28.832737"
       r="73.666779"
       gradientTransform="matrix(0.71831218,9.1684384e-4,-2.9704364e-4,0.23252878,-4.0100162,13.036068)"
       gradientUnits="userSpaceOnUse" />
    <radialGradient
       inkscape:collect="always"
       xlink:href="#linearGradient2210"
       id="radialGradient2212-4"
       cx="84.99073"
       cy="28.832737"
       fx="84.99073"
       fy="28.832737"
       r="73.666779"
       gradientTransform="matrix(0.71831218,9.1684384e-4,-2.9704364e-4,0.23252878,-3.9752855,55.839526)"
       gradientUnits="userSpaceOnUse" />
  </defs>
  <g
     inkscape:label="Layer 1"
     inkscape:groupmode="layer"
     id="layer1"
     transform="translate(-4.2829388,-2.5331898)">
    <ellipse
       style="opacity:1;fill:url(#radialGradient2212);fill-opacity:1;stroke:none;stroke-width:0.357864;stroke-dasharray:none;stroke-opacity:0.995176"
       id="path2041"
       cx="57.195805"
       cy="19.784533"
       rx="52.725571"
       ry="17.251343" />
    <ellipse
       style="fill:none;fill-opacity:1;stroke:#808080;stroke-width:0.357865;stroke-dasharray:0.357865, 0.357865;stroke-dashoffset:0;stroke-opacity:1"
       id="path1877"
       cx="57.195805"
       cy="19.784533"
       rx="49.656078"
       ry="4.7824335" />
    <ellipse
       style="fill:#808080;stroke:none;stroke-width:0.357865;stroke-dasharray:none;stroke-opacity:0.995176"
       id="path1987"
       cx="57.195805"
       cy="19.784533"
       rx="12.390229"
       ry="9.7334251" />
    <ellipse
       style="fill:#ff0000;stroke:none;stroke-width:0.357864;stroke-dasharray:none;stroke-opacity:0.995176"
       id="path2447"
       cx="10.238015"
       cy="19.748005"
       rx="0.55519831"
       ry="0.52246648" />
    <ellipse
       style="fill:#ff0000;stroke:none;stroke-width:0.357864;stroke-dasharray:none;stroke-opacity:0.995176"
       id="path2447-5"
       cx="14.516476"
       cy="18.509502"
       rx="0.55519831"
       ry="0.52246648" />
    <ellipse
       style="fill:#ff0000;stroke:none;stroke-width:0.357864;stroke-dasharray:none;stroke-opacity:0.995176"
       id="path2447-4"
       cx="15.923867"
       cy="21.099098"
       rx="0.55519831"
       ry="0.52246648" />
    <ellipse
       style="fill:#ff0000;stroke:none;stroke-width:0.357864;stroke-dasharray:none;stroke-opacity:0.995176"
       id="path2447-7"
       cx="21.328239"
       cy="18.678391"
       rx="0.55519831"
       ry="0.52246648" />
    <ellipse
       style="fill:#ff0000;stroke:none;stroke-width:0.357864;stroke-dasharray:none;stroke-opacity:0.995176"
       id="path2447-6"
       cx="21.778603"
       cy="21.605757"
       rx="0.55519831"
       ry="0.52246648" />
    <ellipse
       style="fill:#ff0000;stroke:none;stroke-width:0.357864;stroke-dasharray:none;stroke-opacity:0.995176"
       id="path2447-56"
       cx="30.785891"
       cy="17.890251"
       rx="0.55519831"
       ry="0.52246648" />
    <ellipse
       style="fill:#ff0000;stroke:none;stroke-width:0.357864;stroke-dasharray:none;stroke-opacity:0.995176"
       id="path2447-9"
       cx="25.494108"
       cy="17.890251"
       rx="0.55519831"
       ry="0.52246648" />
    <ellipse
       style="fill:#ff0000;stroke:none;stroke-width:0.357864;stroke-dasharray:none;stroke-opacity:0.995176"
       id="path2447-3"
       cx="27.351864"
       cy="22.056122"
       rx="0.55519831"
       ry="0.52246648" />
    <ellipse
       style="fill:#ff0000;stroke:none;stroke-width:0.357864;stroke-dasharray:none;stroke-opacity:0.995176"
       id="path2447-74"
       cx="34.557693"
       cy="20.873917"
       rx="0.55519831"
       ry="0.52246648" />
    <ellipse
       style="fill:#ff0000;stroke:none;stroke-width:0.357864;stroke-dasharray:none;stroke-opacity:0.995176"
       id="path2447-52"
       cx="35.852493"
       cy="17.102114"
       rx="0.55519831"
       ry="0.52246648" />
    <ellipse
       style="fill:#ff0000;stroke:none;stroke-width:0.357864;stroke-dasharray:none;stroke-opacity:0.995176"
       id="path2447-54"
       cx="30.898481"
       cy="20.817619"
       rx="0.55519831"
       ry="0.52246648" />
    <ellipse
       style="fill:#ff0000;stroke:none;stroke-width:0.357864;stroke-dasharray:none;stroke-opacity:0.995176"
       id="path2447-744"
       cx="36.528038"
       cy="22.844261"
       rx="0.55519831"
       ry="0.52246648" />
    <ellipse
       style="fill:#ff0000;stroke:none;stroke-width:0.357864;stroke-dasharray:none;stroke-opacity:0.995176"
       id="path2447-30"
       cx="38.216908"
       cy="19.635414"
       rx="0.55519831"
       ry="0.52246648" />
    <ellipse
       style="fill:#ff0000;stroke:none;stroke-width:0.357864;stroke-dasharray:none;stroke-opacity:0.995176"
       id="path2447-78"
       cx="40.074657"
       cy="16.482864"
       rx="0.55519831"
       ry="0.52246648" />
    <ellipse
       style="fill:#ff0000;stroke:none;stroke-width:0.357864;stroke-dasharray:none;stroke-opacity:0.995176"
       id="path2447-68"
       cx="43.339802"
       cy="17.214705"
       rx="0.55519831"
       ry="0.52246648" />
    <ellipse
       style="fill:#ff0000;stroke:none;stroke-width:0.357864;stroke-dasharray:none;stroke-opacity:0.995176"
       id="path2447-8"
       cx="41.876118"
       cy="19.860596"
       rx="0.55519831"
       ry="0.52246648" />
    <ellipse
       style="fill:#ff0000;stroke:none;stroke-width:0.357864;stroke-dasharray:none;stroke-opacity:0.995176"
       id="path2447-43"
       cx="40.919094"
       cy="22.450191"
       rx="0.55519831"
       ry="0.52246648" />
    <ellipse
       style="fill:#ff0000;stroke:none;stroke-width:0.357864;stroke-dasharray:none;stroke-opacity:0.995176"
       id="path2447-1"
       cx="45.141262"
       cy="21.943531"
       rx="0.55519831"
       ry="0.52246648" />
    <ellipse
       style="fill:#ff0000;stroke:none;stroke-width:0.357864;stroke-dasharray:none;stroke-opacity:0.995176"
       id="path2447-49"
       cx="45.929401"
       cy="19.353937"
       rx="0.55519831"
       ry="0.52246648" />
    <ellipse
       style="fill:#ff0000;stroke:none;stroke-width:0.357864;stroke-dasharray:none;stroke-opacity:0.995176"
       id="path2447-2"
       cx="48.63158"
       cy="15.751021"
       rx="0.55519831"
       ry="0.52246648" />
    <ellipse
       style="fill:#ff0000;stroke:none;stroke-width:0.357864;stroke-dasharray:none;stroke-opacity:0.995176"
       id="path2447-0"
       cx="52.290791"
       cy="12.59847"
       rx="0.55519831"
       ry="0.52246648" />
    <ellipse
       style="fill:#ff0000;stroke:none;stroke-width:0.357864;stroke-dasharray:none;stroke-opacity:0.995176"
       id="path2447-689"
       cx="55.893703"
       cy="12.373287"
       rx="0.55519831"
       ry="0.52246648" />
    <ellipse
       style="fill:#ff0000;stroke:none;stroke-width:0.357864;stroke-dasharray:none;stroke-opacity:0.995176"
       id="path2447-26"
       cx="61.748451"
       cy="12.992538"
       rx="0.55519831"
       ry="0.52246648" />
    <ellipse
       style="fill:#ff0000;stroke:none;stroke-width:0.357864;stroke-dasharray:none;stroke-opacity:0.995176"
       id="path2447-64"
       cx="58.314415"
       cy="13.61179"
       rx="0.55519831"
       ry="0.52246648" />
    <ellipse
       style="fill:#ff0000;stroke:none;stroke-width:0.357864;stroke-dasharray:none;stroke-opacity:0.995176"
       id="path2447-95"
       cx="54.711506"
       cy="15.694725"
       rx="0.55519831"
       ry="0.52246648" />
    <ellipse
       style="fill:#ff0000;stroke:none;stroke-width:0.357864;stroke-dasharray:none;stroke-opacity:0.995176"
       id="path2447-04"
       cx="52.234497"
       cy="15.919908"
       rx="0.55519831"
       ry="0.52246648" />
    <ellipse
       style="fill:#ff0000;stroke:none;stroke-width:0.357864;stroke-dasharray:none;stroke-opacity:0.995176"
       id="path2447-87"
       cx="51.953022"
       cy="18.959867"
       rx="0.55519831"
       ry="0.52246648" />
    <ellipse
       style="fill:#ff0000;stroke:none;stroke-width:0.357864;stroke-dasharray:none;stroke-opacity:0.995176"
       id="path2447-17"
       cx="63.268421"
       cy="21.267984"
       rx="0.55519831"
       ry="0.52246648" />
    <ellipse
       style="fill:#ff0000;stroke:none;stroke-width:0.357864;stroke-dasharray:none;stroke-opacity:0.995176"
       id="path2447-27"
       cx="64.000259"
       cy="17.496183"
       rx="0.55519831"
       ry="0.52246648" />
    <ellipse
       style="fill:#ff0000;stroke:none;stroke-width:0.357864;stroke-dasharray:none;stroke-opacity:0.995176"
       id="path2447-22"
       cx="56.794434"
       cy="19.128754"
       rx="0.55519831"
       ry="0.52246648" />
    <ellipse
       style="fill:#ff0000;stroke:none;stroke-width:0.357864;stroke-dasharray:none;stroke-opacity:0.995176"
       id="path2447-61"
       cx="55.218159"
       cy="21.718349"
       rx="0.55519831"
       ry="0.52246648" />
    <ellipse
       style="fill:#ff0000;stroke:none;stroke-width:0.357864;stroke-dasharray:none;stroke-opacity:0.995176"
       id="path2447-06"
       cx="56.794434"
       cy="25.715332"
       rx="0.55519831"
       ry="0.52246648" />
    <ellipse
       style="fill:#ff0000;stroke:none;stroke-width:0.357864;stroke-dasharray:none;stroke-opacity:0.995176"
       id="path2447-15"
       cx="59.721802"
       cy="19.748005"
       rx="0.55519831"
       ry="0.52246648" />
    <ellipse
       style="fill:#ff0000;stroke:none;stroke-width:0.357864;stroke-dasharray:none;stroke-opacity:0.995176"
       id="path2447-94"
       cx="48.744175"
       cy="23.744991"
       rx="0.55519831"
       ry="0.52246648" />
    <ellipse
       style="fill:#ff0000;stroke:none;stroke-width:0.357864;stroke-dasharray:none;stroke-opacity:0.995176"
       id="path2447-90"
       cx="48.293808"
       cy="21.267984"
       rx="0.55519831"
       ry="0.52246648" />
    <ellipse
       style="fill:#ff0000;stroke:none;stroke-width:0.357864;stroke-dasharray:none;stroke-opacity:0.995176"
       id="path2447-91"
       cx="52.853752"
       cy="24.251648"
       rx="0.55519831"
       ry="0.52246648" />
    <ellipse
       style="fill:#ff0000;stroke:none;stroke-width:0.357864;stroke-dasharray:none;stroke-opacity:0.995176"
       id="path2447-77"
       cx="51.671543"
       cy="20.930214"
       rx="0.55519831"
       ry="0.52246648" />
    <ellipse
       style="fill:#ff0000;stroke:none;stroke-width:0.357864;stroke-dasharray:none;stroke-opacity:0.995176"
       id="path2447-11"
       cx="58.03294"
       cy="22.787966"
       rx="0.55519831"
       ry="0.52246648" />
    <ellipse
       style="fill:#ff0000;stroke:none;stroke-width:0.357864;stroke-dasharray:none;stroke-opacity:0.995176"
       id="path2447-59"
       cx="63.381016"
       cy="24.645718"
       rx="0.55519831"
       ry="0.52246648" />
    <ellipse
       style="fill:#ff0000;stroke:none;stroke-width:0.357864;stroke-dasharray:none;stroke-opacity:0.995176"
       id="path2447-776"
       cx="65.576538"
       cy="21.605757"
       rx="0.55519831"
       ry="0.52246648" />
    <ellipse
       style="fill:#ff0000;stroke:none;stroke-width:0.357864;stroke-dasharray:none;stroke-opacity:0.995176"
       id="path2447-73"
       cx="59.384033"
       cy="16.876932"
       rx="0.55519831"
       ry="0.52246648" />
    <ellipse
       style="fill:#ff0000;stroke:none;stroke-width:0.357864;stroke-dasharray:none;stroke-opacity:0.995176"
       id="path2447-65"
       cx="63.606201"
       cy="15.63843"
       rx="0.55519831"
       ry="0.52246648" />
    <ellipse
       style="fill:#ff0000;stroke:none;stroke-width:0.357864;stroke-dasharray:none;stroke-opacity:0.995176"
       id="path2447-63"
       cx="67.546883"
       cy="19.353937"
       rx="0.55519831"
       ry="0.52246648" />
    <ellipse
       style="fill:#ff0000;stroke:none;stroke-width:0.357864;stroke-dasharray:none;stroke-opacity:0.995176"
       id="path2447-948"
       cx="71.656464"
       cy="16.989523"
       rx="0.55519831"
       ry="0.52246648" />
    <ellipse
       style="fill:#ff0000;stroke:none;stroke-width:0.357864;stroke-dasharray:none;stroke-opacity:0.995176"
       id="path2447-12"
       cx="69.57354"
       cy="21.493166"
       rx="0.55519831"
       ry="0.52246648" />
    <ellipse
       style="fill:#ff0000;stroke:none;stroke-width:0.357864;stroke-dasharray:none;stroke-opacity:0.995176"
       id="path2447-93"
       cx="76.16011"
       cy="18.115435"
       rx="0.55519831"
       ry="0.52246648" />
    <ellipse
       style="fill:#ff0000;stroke:none;stroke-width:0.357864;stroke-dasharray:none;stroke-opacity:0.995176"
       id="path2447-908"
       cx="74.133461"
       cy="21.549461"
       rx="0.55519831"
       ry="0.52246648" />
    <ellipse
       style="fill:#ff0000;stroke:none;stroke-width:0.357864;stroke-dasharray:none;stroke-opacity:0.995176"
       id="path2447-85"
       cx="85.223701"
       cy="17.833956"
       rx="0.55519831"
       ry="0.52246648" />
    <ellipse
       style="fill:#ff0000;stroke:none;stroke-width:0.357864;stroke-dasharray:none;stroke-opacity:0.995176"
       id="path2447-09"
       cx="80.325974"
       cy="20.479849"
       rx="0.55519831"
       ry="0.52246648" />
    <ellipse
       style="fill:#ff0000;stroke:none;stroke-width:0.357864;stroke-dasharray:none;stroke-opacity:0.995176"
       id="path2447-638"
       cx="91.528786"
       cy="19.860596"
       rx="0.55519831"
       ry="0.52246648" />
    <ellipse
       style="fill:#ff0000;stroke:none;stroke-width:0.357864;stroke-dasharray:none;stroke-opacity:0.995176"
       id="path2447-561"
       cx="88.038483"
       cy="17.383593"
       rx="0.55519831"
       ry="0.52246648" />
    <ellipse
       style="fill:#ff0000;stroke:none;stroke-width:0.357864;stroke-dasharray:none;stroke-opacity:0.995176"
       id="path2447-159"
       cx="86.293304"
       cy="20.705029"
       rx="0.55519831"
       ry="0.52246648" />
    <ellipse
       style="fill:#ff0000;stroke:none;stroke-width:0.357864;stroke-dasharray:none;stroke-opacity:0.995176"
       id="path2447-84"
       cx="78.186745"
       cy="16.370272"
       rx="0.55519831"
       ry="0.52246648" />
    <ellipse
       style="fill:#ff0000;stroke:none;stroke-width:0.357864;stroke-dasharray:none;stroke-opacity:0.995176"
       id="path2447-81"
       cx="94.456161"
       cy="17.833956"
       rx="0.55519831"
       ry="0.52246648" />
    <ellipse
       style="fill:#ff0000;stroke:none;stroke-width:0.357864;stroke-dasharray:none;stroke-opacity:0.995176"
       id="path2447-03"
       cx="100.19832"
       cy="19.69171"
       rx="0.55519831"
       ry="0.52246648" />
    <path
       style="fill:none;stroke:#808080;stroke-width:0.18937px;stroke-linecap:butt;stroke-linejoin:miter;stroke-opacity:1"
       d="m 18.859923,21.368417 c -0.09324,-0.258175 -0.231288,-0.504337 -0.279737,-0.774525 -0.04621,-0.257746 -0.03272,-0.525762 0,-0.785565 0.05064,-0.402163 0.09281,-0.533694 0.29622,-0.777792 0.02403,-0.02883 0.04743,-0.06031 0.07961,-0.07961 0.108769,-0.06526 0.244388,-0.03981 0.360905,-0.03981 0.130145,0 0.401519,-0.01557 0.534441,0.03981 0.0915,0.03812 0.165978,0.108447 0.247394,0.164982 0.104323,0.07244 0.205389,0.149503 0.309748,0.221892 0.08636,0.05991 0.179971,0.10963 0.262321,0.174933 0.567365,0.44992 -0.195419,-0.06923 0.319078,0.239463 0.01609,0.0097 0.02653,0.02656 0.03981,0.03981 0.01237,0.01234 0.02748,0.02246 0.03716,0.03701 0.01561,0.02345 0.02206,0.05219 0.03779,0.07557 0.01052,0.01556 0.02654,0.02654 0.03981,0.03981 0.05307,0.05307 0.112336,0.100615 0.159226,0.159228 0.02988,0.03735 0.0518,0.08049 0.07961,0.119421 0.119306,0.167027 0.147184,0.221577 0.358262,0.318455 0.09076,0.04166 0.19149,0.05684 0.28798,0.08257 0.433194,0.115525 0.256657,0.08708 0.699886,0.08708 0.322349,0 0.436224,0.03943 0.719168,-0.08583 0.109033,-0.04827 0.08086,-0.105916 0.08086,-0.200124 0,-0.02654 0.0099,-0.05498 0,-0.07961 -0.01776,-0.04442 -0.04973,-0.08207 -0.07961,-0.119421 -0.02345,-0.02931 -0.05307,-0.05308 -0.07961,-0.07961 -0.01328,-0.01328 -0.03612,-0.02141 -0.03981,-0.03981 -0.02829,-0.141461 -0.0039,-0.174208 0.07961,-0.278649 0.02345,-0.02931 0.05307,-0.05307 0.07961,-0.07961 0.03981,-0.03981 0.07961,-0.07961 0.119421,-0.119422 0.01328,-0.01327 0.03141,-0.02302 0.03981,-0.03981 0.01877,-0.03753 0.02654,-0.07961 0.03981,-0.119421 0.02654,-0.06634 0.04763,-0.135135 0.07961,-0.199035 0.05097,-0.101858 0.12147,-0.193509 0.168713,-0.297152 0.02284,-0.0501 0.0265,-0.10689 0.03981,-0.160317 0.01322,-0.05309 0.03207,-0.105067 0.03981,-0.159228 0.0074,-0.0524 0,-0.105842 0,-0.158762 0,-0.02353 0.008,-0.04845 0,-0.07059 -0.0064,-0.01765 -0.02654,-0.02654 -0.03981,-0.03981 -0.01328,-0.01327 -0.02113,-0.03796 -0.03981,-0.03981 -0.04261,-0.0042 -0.03992,0.07888 -0.03266,0.14259 0.02192,0.192014 0.09335,0.480667 0.130306,0.648885 0.04978,0.226581 0.118348,0.449872 0.148965,0.679828 0.01931,0.145042 0,0.292645 0,0.438965 0,0.280308 0,0.560614 0,0.840922 0,0.457103 -0.01609,-0.03303 0.03981,0.358263 0.01125,0.07882 -0.01561,0.160773 0,0.238841 0.01517,0.07588 0.187523,0.264835 0.199033,0.278649 0.05723,0.06867 0.04941,0.03569 0.159228,0.07961 0.02755,0.01103 0.04996,0.03889 0.07961,0.03981 0.01706,5.67e-4 0.02416,-0.02415 0.03623,-0.03623"
       id="path4981" />
    <path
       style="fill:none;stroke:#808080;stroke-width:0.18937px;stroke-linecap:butt;stroke-linejoin:miter;stroke-opacity:1"
       d="m 28.6924,17.942841 c -0.293578,0.289689 -0.572399,0.595135 -0.88073,0.869067 -0.962802,0.855389 -0.230461,0.111821 -0.699886,0.510493 -0.161906,0.137503 -0.108128,0.122659 -0.239931,0.320321 -0.03717,0.05575 -0.08512,0.103983 -0.120664,0.160783 -0.03149,0.0503 -0.06332,0.102166 -0.07961,0.159228 -0.01094,0.03828 0,0.07961 0,0.119421 0,0.05307 0,0.10615 0,0.159229 0,0.02638 0.0065,0.05356 0,0.07915 -0.0072,0.02859 -0.02658,0.05264 -0.03981,0.079 -0.01331,0.02652 -0.022,0.05588 -0.03981,0.07961 -0.07145,0.09527 -0.178212,0.141731 -0.279583,0.199658 -0.0258,0.01474 -0.05503,0.02334 -0.07977,0.03981 -0.04686,0.0312 -0.07546,0.08425 -0.119421,0.119421 -0.03736,0.02988 -0.08115,0.05091 -0.119421,0.07961 -0.01501,0.01126 -0.02654,0.02654 -0.03981,0.03981 -0.03981,0.03981 -0.07961,0.07961 -0.11942,0.119422"
       id="path4983" />
    <path
       style="fill:none;stroke:#808080;stroke-width:0.18937px;stroke-linecap:butt;stroke-linejoin:miter;stroke-opacity:1"
       d="m 30.229321,22.880926 c -0.200744,-0.754396 1.439468,0.132256 1.893164,-0.319078 0.0092,-0.0092 0,-0.02612 0,-0.03919 0,-0.05277 -0.0049,-0.105757 0,-0.158294 0.009,-0.09622 0.02136,-0.192439 0.04183,-0.286891 0.0036,-0.01645 0.169677,-0.589859 0.171201,-0.600212 0.01386,-0.0942 0,-0.190432 0,-0.285647 0,-0.09688 0.01761,-0.195362 0,-0.290623 -0.02349,-0.12712 -0.09268,-0.242253 -0.121753,-0.368214 -0.01193,-0.05171 0,-0.10615 0,-0.159227 0,-0.153467 -0.01677,-0.146604 0.03981,-0.27865 0.02337,-0.05454 0.05878,-0.103664 0.07961,-0.159227 0.01921,-0.05123 0.02408,-0.106826 0.03981,-0.159227 0.02412,-0.08039 0.0555,-0.158463 0.07961,-0.238843 0.01571,-0.05241 0.01534,-0.110294 0.03981,-0.159228 0.02967,-0.05934 0.08719,-0.101242 0.119421,-0.159227 0.03474,-0.06252 0.05071,-0.133838 0.07977,-0.199191 0.02411,-0.05422 0.05757,-0.104131 0.07961,-0.159228 0.03117,-0.07791 0.05014,-0.160265 0.07961,-0.238842 0.0054,-0.01425 0.04257,-0.10411 0.07542,-0.115222 0.02199,-0.0074 0.04645,0 0.06966,0"
       id="path4985" />
    <path
       style="fill:none;stroke:#808080;stroke-width:0.18937px;stroke-linecap:butt;stroke-linejoin:miter;stroke-opacity:1"
       d="m 34.924055,19.140316 c 0.43824,0.113304 0.899476,0.159734 1.31472,0.339914 0.150349,0.06524 1.053019,0.724589 1.341463,0.943082 0.07163,0.05427 0.155322,0.09722 0.211163,0.167625 0.104249,0.13146 0.07961,0.247515 0.07961,0.39807 0,0.179533 0.01096,0.348501 -0.03981,0.525265 -0.02982,0.103834 -0.08524,0.198544 -0.127974,0.297775 -0.04533,0.1053 -0.09726,0.207989 -0.136215,0.315812 -0.02531,0.07001 -0.120288,0.333069 -0.08195,0.448917 0.02711,0.08193 0.283339,0.183975 0.358261,0.199036 0.744206,0.149582 -0.339557,-0.170884 1.099045,0.192036 0.229923,0.05801 0.448782,0.153449 0.674855,0.225003 0.10874,0.03442 0.219958,0.0605 0.329339,0.09283 0.04024,0.0119 0.07877,0.02941 0.11942,0.03981 0.01164,0.003 0.02517,-0.0051 0.03608,0 0.01337,0.0063 0.01653,0.03111 0.03125,0.03125 0.01031,1.02e-4 0.0032,-0.02115 0,-0.03095 -0.03675,-0.110997 -0.07963,-0.219865 -0.119421,-0.329808 -0.06874,-0.189957 -0.153693,-0.374816 -0.206188,-0.569891 -0.130668,-0.485578 -0.109313,-0.535952 -0.109313,-0.961432 0,-0.08174 -0.0073,-0.163804 0,-0.245217 0.01585,-0.176864 0.03837,-0.174114 0.07961,-0.318456 0.01504,-0.05261 0.03207,-0.105066 0.03981,-0.159227 0.0069,-0.0486 -0.0092,-0.244811 0,-0.278649 0.02676,-0.09783 0.06556,-0.194044 0.120044,-0.279583 0.04053,-0.06361 0.110359,-0.103217 0.160005,-0.160004 0.0443,-0.05067 0.08377,-0.105577 0.121133,-0.161562 0.01648,-0.02468 0.03394,-0.05053 0.03981,-0.07961 0.01301,-0.06458 0,-0.131757 0,-0.197635 0,-0.05307 0.0053,-0.106416 0,-0.159228 -0.004,-0.04088 -0.07815,-0.452665 -0.08179,-0.488102 -0.0095,-0.09239 0,-0.185766 0,-0.278649 0,-0.05307 0.0087,-0.106873 0,-0.159227 -0.0049,-0.02927 -0.02654,-0.05307 -0.03981,-0.07961 -0.06132,-0.122633 -0.129434,-0.230929 -0.238843,-0.318455 -0.02317,-0.01854 -0.05588,-0.022 -0.07961,-0.03981 -0.117734,-0.0883 -0.03245,-0.07961 -0.116466,-0.07961"
       id="path4987" />
    <path
       style="fill:none;stroke:#808080;stroke-width:0.18937px;stroke-linecap:butt;stroke-linejoin:miter;stroke-opacity:1"
       d="m 33.983772,16.832911 c -0.672946,0.136673 -0.709042,0.175303 -1.308188,0.205721 -0.221453,0.01124 -0.443474,0 -0.665212,0 -0.09693,0 -0.194103,0.0069 -0.290777,0 -0.07446,-0.0054 -0.511883,-0.07905 -0.585597,-0.08413 -0.105905,-0.0073 -0.212305,0 -0.318457,0 -0.212303,0 -0.424608,0 -0.63691,0 -0.07961,0 -0.159555,0.0072 -0.238842,0 -0.06737,-0.0062 -0.132466,-0.02772 -0.199036,-0.03981 -0.08091,-0.0147 -0.161624,-0.03145 -0.243351,-0.04058 -0.03956,-0.0045 -0.07961,0 -0.119421,0 -0.01313,0 -0.02761,0.0058 -0.03934,0 -0.01659,-0.0083 -0.02179,-0.03335 -0.03934,-0.03934 -0.02393,-0.0082 -0.05092,0.004 -0.07588,0 -0.05326,-0.0086 -0.103717,-0.03211 -0.157361,-0.03779 -0.06597,-0.007 -0.13269,0 -0.199034,0 -0.06634,0 -0.13269,0 -0.199036,0 -0.08283,0 -0.359981,-0.02251 -0.437875,0.03981 -0.05483,0.04386 -0.129794,0.231592 -0.159229,0.278649 -0.03556,0.05685 -0.08511,0.104089 -0.120664,0.160938 -0.03147,0.05031 -0.0467,0.109854 -0.07961,0.159229 -0.04713,0.07069 -0.114196,0.126985 -0.159226,0.199034 -0.02232,0.03571 -0.07499,0.255534 -0.07961,0.278649 -0.0096,0.04796 0.01892,0.06207 0,0.118332 -0.0061,0.01778 -0.02654,0.02654 -0.03981,0.03981 -0.01328,0.01327 -0.02302,0.03141 -0.03981,0.03981 -0.104791,0.05239 -0.127169,0.03981 -0.238842,0.03981 -0.07961,0 -0.159229,0 -0.238842,0 -0.02591,0 -0.05231,-0.0049 -0.07774,0 -0.133088,0.02585 -0.418554,0.100094 -0.515626,0.197168 -0.02098,0.02098 -0.02654,0.05307 -0.03981,0.07961 -0.01328,0.02654 -0.0326,0.05083 -0.03981,0.07961 -0.0065,0.02574 0,0.05307 0,0.07961 0,0.02622 0,0.05246 0,0.07868 0,0.01311 0.0058,0.02761 0,0.03934 -0.0083,0.01655 -0.02625,0.02609 -0.03935,0.03919 -0.01302,0.01304 -0.02154,0.03334 -0.03903,0.03919 -0.02467,0.0083 -0.05204,0 -0.07806,0 -0.03981,0 -0.08069,-0.0091 -0.119422,0 -0.04776,0.01129 -0.07512,0.149221 -0.07697,0.153786 -0.01115,0.02749 -0.02335,0.05492 -0.03981,0.07961 -0.0368,0.0552 -0.0725,0.112314 -0.11942,0.159228 -0.05678,0.05678 -0.221488,0.130627 -0.283316,0.16156 -0.02731,0.01368 -0.05464,0.02737 -0.08195,0.04105 -0.01328,0.01327 -0.02304,0.03138 -0.03981,0.03981 -0.02079,0.01041 -0.04654,0 -0.06982,0 -0.05981,0 -0.119628,0 -0.179443,0"
       id="path4989" />
    <path
       style="fill:none;stroke:#808080;stroke-width:0.18937px;stroke-linecap:butt;stroke-linejoin:miter;stroke-opacity:1"
       d="m 13.32831,20.742545 c 0.618255,-0.103515 0.305078,-0.02741 1.309743,-0.510648 0.154038,-0.07409 0.299248,-0.165302 0.448139,-0.249261 0.107476,-0.0606 0.209135,-0.132235 0.320943,-0.184418 0.123293,-0.05754 0.254023,-0.09763 0.382055,-0.143678 0.07896,-0.0284 0.156274,-0.0646 0.238841,-0.07961 0.06527,-0.01187 0.13269,0 0.199034,0 0.114187,0 0.231522,-0.02663 0.342558,0 0.170581,0.04092 0.325832,0.13017 0.487169,0.199035 0.412611,0.176115 0.431209,0.228699 0.849162,0.306638 0.05218,0.0098 0.120624,0.03643 0.159229,0 0.0292,-0.02757 -0.03325,-0.07443 -0.0381,-0.114288 -0.008,-0.06587 -0.01188,-0.13376 0,-0.199036 0.123401,-0.678707 0.07044,0.353191 0.124395,-0.651217 0.0075,-0.140263 0.0096,-0.281253 0,-0.421394 -0.0038,-0.05604 -0.03199,-0.108116 -0.03981,-0.163737 -0.01636,-0.116372 -0.0056,-0.108205 0.03981,-0.199034"
       id="path4991" />
    <path
       style="fill:none;stroke:#808080;stroke-width:0.18937px;stroke-linecap:butt;stroke-linejoin:miter;stroke-opacity:1"
       d="m 19.691515,17.653774 c -0.166898,0.499038 -0.344067,0.994759 -0.500695,1.497116 -0.07977,0.255843 -0.121319,0.523032 -0.208212,0.776547 -0.382914,1.117188 -0.07,-0.121024 -0.22749,0.577667 -0.02931,0.130031 -0.09127,0.204406 0.03981,0.318456 0.198928,0.173086 0.564644,0.258434 0.79303,0.318765 0.217058,0.05735 0.481437,0.05369 0.652616,0.224537 0.01305,0.01302 0.02895,0.0237 0.03919,0.03903 0.01616,0.02419 0.02602,0.05204 0.03903,0.07806"
       id="path4993" />
    <path
       style="fill:none;stroke:#808080;stroke-width:0.18937px;stroke-linecap:butt;stroke-linejoin:miter;stroke-opacity:1"
       d="m 36.628603,18.8598 c 0.10615,0.213237 0.248664,0.411967 0.318455,0.639711 0.03901,0.127312 0,0.266313 0,0.399469 0,0.05307 0,0.10615 0,0.159228 0,0.05307 -0.0066,0.10656 0,0.159228 0.021,0.16807 0.152592,0.498993 0.23884,0.636912 0.03551,0.05678 0.08033,0.107195 0.12051,0.160783 0.03981,0.05307 0.06957,0.11544 0.119422,0.159226 0.07476,0.06567 0.158669,0.123004 0.249105,0.164516 0.248746,0.114181 0.505358,0.211356 0.764108,0.300574 1.247195,0.430037 -0.18272,-0.131033 0.579376,0.173689"
       id="path4995" />
    <path
       style="fill:none;stroke:#808080;stroke-width:0.18937px;stroke-linecap:butt;stroke-linejoin:miter;stroke-opacity:1"
       d="m 42.736018,22.595124 c 1.086287,-1.349753 0.591522,-0.525243 0.929711,-1.33151 0.03478,-0.08293 0.10581,-0.183422 0.119419,-0.278649 0.0075,-0.05254 0,-0.10615 0,-0.159229 0,-0.06634 0,-0.13269 0,-0.199034 0,-0.06634 0.02467,-0.137445 0,-0.199036 -0.03174,-0.07925 -0.108701,-0.131763 -0.159848,-0.200122 -0.03025,-0.04042 -0.06092,-0.08112 -0.08413,-0.125953 -0.0056,-0.01081 0,-0.02436 0,-0.03653 0,-0.02405 -0.01827,-0.05652 0,-0.07214 0.213991,-0.182944 0.437744,-0.356408 0.676252,-0.505984 0.149064,-0.09349 0.320775,-0.144735 0.480171,-0.21925 0.08116,-0.03794 0.160265,-0.08013 0.240398,-0.120199"
       id="path4997" />
    <path
       style="fill:none;stroke:#808080;stroke-width:0.18937px;stroke-linecap:butt;stroke-linejoin:miter;stroke-opacity:1"
       d="m 45.308075,16.015313 c -0.05307,0 -0.106348,-0.0046 -0.159226,0 -0.463275,0.04003 -0.926109,0.0853 -1.38858,0.133726 -0.193217,0.02024 -0.507228,0.072 -0.685737,0.161249 -0.08558,0.04279 -0.159224,0.106161 -0.23884,0.159228 -0.08205,0.05469 -0.169982,0.101433 -0.246152,0.164048 -0.354842,0.291689 -0.08668,0.122123 -0.333694,0.33385 -0.361142,0.309551 0.0802,-0.114501 -0.410665,0.287668 -0.110915,0.09087 -0.347255,0.357093 -0.423259,0.467266 -0.06541,0.09482 -0.129196,0.192946 -0.171047,0.300263 -0.03057,0.07841 -0.03213,0.165343 -0.04307,0.248792 -0.01467,0.111854 0.03788,0.08154 -0.03981,0.15923"
       id="path4999" />
    <path
       style="fill:none;stroke:#808080;stroke-width:0.18937px;stroke-linecap:butt;stroke-linejoin:miter;stroke-opacity:1"
       d="m 69.159604,16.673528 c 0.0806,0.05375 0.219386,0.067 0.241795,0.161248 0.119227,0.501429 0.09726,1.026397 0.162185,1.5377 0.01574,0.124022 0.03836,0.248479 0.07961,0.366505 0.110767,0.317127 0.133055,0.259169 0.280359,0.480171 0.0433,0.06494 0.0726,0.13913 0.120508,0.200745 0.04623,0.05949 0.106565,0.106567 0.15985,0.15985 0.05311,0.05307 0.10615,0.10615 0.159229,0.159227 0.02656,0.02654 0.05075,0.0556 0.07961,0.07961 0.04416,0.109999 0.16328,0.102474 0.240242,0.160317 0.02999,0.02254 0.05311,0.05307 0.07962,0.07961"
       id="path5001" />
    <path
       style="fill:none;stroke:#808080;stroke-width:0.18937px;stroke-linecap:butt;stroke-linejoin:miter;stroke-opacity:1"
       d="m 70.774272,22.551586 c 0.30923,-0.125278 0.706204,-0.12631 0.927687,-0.375834 0.159006,-0.179133 0.02369,-0.47853 0.04259,-0.717303 0.01009,-0.1274 0.02727,-0.254177 0.04445,-0.380809 0.04395,-0.323141 0.109773,-0.651567 0.286886,-0.931888 0.07836,-0.124018 0.260734,-0.311758 0.365417,-0.405533 0.06692,-0.05994 0.140018,-0.112584 0.211012,-0.167626 0.05246,-0.04066 0.112313,-0.0725 0.159228,-0.11942 0.138372,-0.138376 0.120536,-0.181655 0.19903,-0.358263 0.06105,-0.137374 0.09845,-0.203504 0.199811,-0.319388 0.148844,-0.170162 0.193627,-0.158068 0.31986,-0.360129 5.66e-4,-0.001 0.05332,-0.118566 0.03979,-0.159072 -0.0093,-0.02782 -0.0262,-0.05246 -0.03936,-0.07868"
       id="path5003" />
    <path
       style="fill:none;stroke:#808080;stroke-width:0.18937px;stroke-linecap:butt;stroke-linejoin:miter;stroke-opacity:1"
       d="m 73.462641,16.759828 c 0.179491,0.275539 0.404152,0.526458 0.53848,0.826616 0.06463,0.144467 0.03357,0.314874 0.04309,0.472863 0.005,0.08117 0,0.162649 0,0.243973 0,0.241287 0.01561,0.216195 -0.0398,0.437877 -0.0942,0.376781 -0.07961,0.156172 -0.07961,0.437876 0,0.05307 -0.01289,0.107737 0,0.159228 0.04001,0.159888 0.09914,0.164411 0.199037,0.278649 0.05619,0.06424 0.106544,0.133332 0.159852,0.199969 0.167009,0.208784 0.192038,0.242334 0.379559,0.463687 0.28383,0.335024 0.274605,0.295692 0.513608,0.652619 0.04351,0.06503 0.0853,0.131631 0.120201,0.201677 0.0478,0.09597 0.03979,0.10615 0.03979,0.195459 0,0.02638 -0.005,0.05328 0,0.07914 0.01331,0.03981 0.02656,0.07961 0.0398,0.119421 0.01324,0.01328 0.03386,0.02201 0.0398,0.03981 0.0084,0.02491 0,0.05255 0,0.07884 0,0.05307 0.01159,0.10743 0,0.159228 -0.100754,0.451041 -0.04953,-0.02677 -0.16016,0.359974 -0.01095,0.03827 0,0.07961 0,0.119422"
       id="path5005" />
    <path
       style="fill:none;stroke:#808080;stroke-width:0.18937px;stroke-linecap:butt;stroke-linejoin:miter;stroke-opacity:1"
       d="m 76.408045,22.0795 c 0.145236,-0.08168 0.362496,-0.09538 0.435701,-0.245062 0.294559,-0.602316 0.463149,-1.261642 0.619966,-1.913533 0.02463,-0.102527 -0.06077,-0.202035 -0.08647,-0.304306 -0.0036,-0.01287 0,-0.02654 0,-0.03981 0,-0.02499 -0.01861,-0.05825 0,-0.07495 0.402034,-0.361463 0.581517,-0.312182 1.135586,-0.555743 0.612808,-0.269379 0.774992,-0.345529 1.244126,-0.75431 0.02269,-0.01977 0.03013,-0.05239 0.04072,-0.08055 0.139289,-0.369629 0.04903,-0.101285 0.07961,-0.437876 0.02204,-0.242493 0.0239,-0.2072 0.119426,-0.398225 0.06613,-0.132232 0.05833,-0.182578 0.199032,-0.238843 0.03693,-0.01479 0.07961,0 0.119426,0"
       id="path5007" />
    <path
       style="fill:none;stroke:#808080;stroke-width:0.18937px;stroke-linecap:butt;stroke-linejoin:miter;stroke-opacity:1"
       d="m 81.264807,22.929908 c -1.339841,-0.494401 -1.576905,-0.524175 -2.589471,-1.024564 -0.06992,-0.03456 -0.13913,-0.07249 -0.200748,-0.120355 C 78.37,21.703759 78.231225,21.526833 78.15535,21.425483 78.07949,21.324135 78.021159,21.208723 77.93424,21.116669 77.813604,20.988907 77.677822,20.875195 77.536788,20.77038 76.79965,20.311328 77.371024,20.68972 76.908583,20.343386 c -0.0082,-0.0062 -0.140948,-0.08309 -0.15922,-0.119419 -0.0057,-0.01173 0,-0.02623 0,-0.03934 0,-0.03965 0,-0.07931 0,-0.118955 0,-0.02654 0,-0.05307 0,-0.07961 0,-0.02618 0.0065,-0.0531 0,-0.07853 -0.01783,-0.07277 -0.06657,-0.104652 -0.117402,-0.155495"
       id="path5009" />
    <path
       style="fill:none;stroke:#808080;stroke-width:0.18937px;stroke-linecap:butt;stroke-linejoin:miter;stroke-opacity:1"
       d="m 81.53677,16.992605 c -0.138214,0.701957 -0.09853,0.296989 0.682163,1.646703 0.08985,0.155345 0.254371,0.255919 0.35624,0.403667 0.06205,0.09004 0.08674,0.200823 0.129834,0.301351 0.130785,0.305056 0.154935,0.31983 0.217697,0.65666 0.07,0.375579 0.04481,0.545404 0.04481,0.964852 0,0.271218 -0.01339,0.217045 0.0398,0.48297 0.01074,0.05365 0.01754,0.109269 0.03979,0.159229 0.04809,0.10778 0.165241,0.267792 0.24133,0.362305 0.132153,0.164165 0.233121,0.305002 0.414702,0.414708 0.244079,0.0977 0.140011,0.04016 0.31908,0.159538"
       id="path5011" />
    <path
       style="fill:none;stroke:#808080;stroke-width:0.18937px;stroke-linecap:butt;stroke-linejoin:miter;stroke-opacity:1"
       d="m 88.018771,22.020101 c 0.441147,-0.32087 1.079272,-0.759044 1.315191,-1.185812 0.06492,-0.117462 -0.189812,-0.189809 -0.284718,-0.284714 -0.114803,-0.114807 -0.22139,-0.238478 -0.344425,-0.344423 -0.101635,-0.08752 -0.218197,-0.156035 -0.327317,-0.234022 -0.09565,-0.06836 -0.379431,-0.284267 -0.521532,-0.348777 -0.181022,-0.08218 -0.368157,-0.10103 -0.557297,-0.159228 -0.06828,-0.02101 -0.129281,-0.06411 -0.199037,-0.07961 -0.05182,-0.01152 -0.106478,0.0058 -0.159228,0 -0.536068,-0.107213 0.135315,0.01354 -0.398068,-0.03981 -0.06735,-0.0067 -0.131788,-0.03234 -0.199037,-0.03981 -0.05275,-0.0058 -0.10615,0 -0.159222,0 -0.119427,0 -0.238846,0 -0.358266,0 -0.07961,0 -0.164082,-0.02738 -0.238847,0 -0.08078,0.02959 -0.136869,0.104492 -0.201521,0.161248 -0.593934,0.521442 -0.342677,0.263374 -0.762239,0.872643 -0.07813,0.113454 -0.173622,0.215628 -0.24055,0.336029 -0.0627,0.11279 -0.10733,0.352717 -0.120042,0.479857 -0.005,0.05281 -0.01868,0.10956 0,0.15923 0.01911,0.05081 0.17612,0.232349 0.239927,0.280203 0.0769,0.05768 0.159959,0.10666 0.239935,0.160006"
       id="path5013" />
    <path
       style="fill:none;stroke:#808080;stroke-width:0.18937px;stroke-linecap:butt;stroke-linejoin:miter;stroke-opacity:1"
       d="m 90.410771,21.645822 c -0.02605,-0.225107 -0.05039,-0.450422 -0.07822,-0.67532 -0.01153,-0.09312 -0.0079,-0.190432 -0.03979,-0.278647 -0.0021,-0.0062 -0.321163,-0.564082 -0.329652,-0.579379 -0.01438,-0.02594 -0.034,-0.05053 -0.03979,-0.07961 -0.0078,-0.03903 0,-0.07961 0,-0.119421 0,-0.03981 -0.0126,-0.08166 0,-0.119422 0.01511,-0.04538 0.05311,-0.07961 0.07961,-0.119422 0.428573,-0.642858 -0.121902,0.148094 0.379567,-0.461355 0.06226,-0.07571 0.115383,-0.159112 0.163115,-0.24475 0.02856,-0.08524 0.03607,-0.126401 0.07992,-0.199502 0.102867,-0.171462 0.237443,-0.322385 0.359661,-0.47955 0.04073,-0.05237 0.08429,-0.102942 0.11942,-0.159227 0.09828,-0.157451 0.07157,-0.150208 0.120042,-0.319855 0.01153,-0.04035 0.02656,-0.07961 0.0398,-0.119421"
       id="path5015" />
    <path
       style="fill:none;stroke:#808080;stroke-width:0.18937px;stroke-linecap:butt;stroke-linejoin:miter;stroke-opacity:1"
       d="m 92.963546,19.026648 c 0.236506,0.582902 0.447024,1.17704 0.709525,1.748708 0.04759,0.103579 0.276208,0.321918 0.370863,0.416572 0.0398,0.03981 0.07438,0.08567 0.11942,0.119422 0.250362,0.187624 0.260369,0.200526 0.525417,0.322655 0.09926,0.04572 0.195703,0.101136 0.301352,0.129062 0.116943,0.0309 0.240264,0.02842 0.359977,0.04571 0.349963,0.05059 0.127837,0.04168 0.403822,0.04168"
       id="path5017" />
    <path
       style="fill:none;stroke:#808080;stroke-width:0.18937px;stroke-linecap:butt;stroke-linejoin:miter;stroke-opacity:1"
       d="m 96.990733,18.826368 c 0.06634,-0.03981 0.124094,-0.10019 0.199038,-0.119419 0.274332,-0.07038 0.518611,-0.05413 0.781363,0.0409 0.07537,0.02726 0.138086,0.08143 0.206037,0.123931 0.04058,0.02537 0.08114,0.05091 0.11942,0.07961 0.01503,0.01126 0.03386,0.022 0.0398,0.03981 0.05654,0.169691 0.03979,0.342702 0.03979,0.51749 0,0.05307 -0.0075,0.106685 0,0.159229 1.3e-4,9.31e-4 0.07859,0.235268 0.07961,0.238842 0.05268,0.184379 0.0398,0.130071 0.0398,0.318454"
       id="path5019" />
    <path
       style="fill:none;stroke:#808080;stroke-width:0.18937px;stroke-linecap:butt;stroke-linejoin:miter;stroke-opacity:1"
       d="m 100.2165,18.377764 c 0.93216,0 1.25392,-0.01728 2.44005,0.168868 0.0804,0.01262 0.13109,0.09729 0.18985,0.153629 0.23362,0.223959 0.44644,0.469498 0.68652,0.686516 0.13742,0.124224 0.28919,0.232396 0.44347,0.334937 0.077,0.05118 0.18178,0.05987 0.24786,0.124552 0.0281,0.02753 0,0.07868 0,0.118022 0,0.03981 -0.007,0.08039 0,0.119421 0.005,0.0291 0.0266,0.05307 0.0398,0.07961"
       id="path5021" />
    <text
       xml:space="preserve"
       style="font-size:2.82223px;line-height:1.25;font-family:'Fira Code';-inkscape-font-specification:'Fira Code,  weight=453';fill:#800000;stroke-width:0.264583"
       x="4.0412402"
       y="8.6170225"
       id="text7768"><tspan
         sodipodi:role="line"
         id="tspan7766"
         style="fill:#800000;stroke-width:0.264583"
         x="4.0412402"
         y="8.6170225">Hot Ionised Medium</tspan></text>
    <text
       xml:space="preserve"
       style="font-size:2.82223px;line-height:1.25;font-family:'Fira Code';-inkscape-font-specification:'Fira Code,  weight=453';fill:#808080;fill-opacity:1;stroke-width:0.264583"
       x="4.0412402"
       y="4.9186931"
       id="text7768-0"><tspan
         sodipodi:role="line"
         id="tspan7766-4"
         style="fill:#808080;fill-opacity:1;stroke-width:0.264583"
         x="4.0412402"
         y="4.9186931">Neutral Medium</tspan></text>
    <text
       xml:space="preserve"
       style="font-size:2.82223px;line-height:1.25;font-family:'Fira Code';-inkscape-font-specification:'Fira Code,  weight=453';fill:#ff0000;fill-opacity:1;stroke-width:0.264583"
       x="4.1570239"
       y="12.102599"
       id="text7768-0-4"><tspan
         sodipodi:role="line"
         id="tspan7766-4-4"
         style="fill:#ff0000;fill-opacity:1;stroke-width:0.264583"
         x="4.1570239"
         y="12.102599">Supernova Remnants</tspan></text>
    <text
       xml:space="preserve"
       style="font-size:4.0399px;line-height:1.25;font-family:'Fira Code';-inkscape-font-specification:'Fira Code,  weight=453';stroke-width:0.18937"
       x="32.220997"
       y="40.741409"
       id="text8716"><tspan
         sodipodi:role="line"
         id="tspan8714"
         style="font-weight:normal;font-size:4.0399px;stroke-width:0.18937"
         x="32.220997"
         y="40.741409">(A) McKee &amp; Ostriker</tspan></text>
    <ellipse
       style="fill:url(#radialGradient2212-4);fill-opacity:1;stroke:none;stroke-width:0.357864;stroke-dasharray:none;stroke-opacity:0.995176"
       id="path2041-3"
       cx="57.230537"
       cy="62.58799"
       rx="52.725571"
       ry="17.251343" />
    <path
       id="path1877-1"
       style="fill:#808080;fill-opacity:1;stroke:#808080;stroke-width:0.357865;stroke-dasharray:none;stroke-opacity:1"
       d="m 57.539176,57.992449 a 49.656081,4.7824338 0 0 0 -16.019923,0.257796 c -0.146,0.308119 -0.232413,0.677578 -0.239302,1.129195 a 1.5073354,3.3030753 0 0 1 1.027853,3.130899 1.5073354,3.3030753 0 0 1 -1.012318,3.119434 c 0.111457,0.620215 0.328986,1.191135 0.711618,1.685101 a 49.656081,4.7824338 0 0 0 15.532072,0.242261 49.656081,4.7824338 0 0 0 13.465274,-0.182344 c 0.227638,-0.415199 0.338763,-0.94484 0.272959,-1.648114 a 1.5073354,3.3030753 0 0 1 -0.846624,-2.968899 1.5073354,3.3030753 0 0 1 0.844033,-2.96557 c -0.0924,-0.592651 -0.282471,-1.142563 -0.62137,-1.627771 A 49.656081,4.7824338 0 0 0 57.539176,57.992449 Z m 15.271685,0.233384 c -0.238117,0.35674 -0.384483,0.808014 -0.393537,1.401046 a 1.5073354,3.3030753 0 0 1 1.027853,3.130899 1.5073354,3.3030753 0 0 1 -1.012314,3.119434 c 0.09348,0.520164 0.261835,1.00536 0.53926,1.43988 a 49.656081,4.7824338 0 0 0 14.835249,-0.753783 c 0.05439,-0.282593 0.069,-0.604211 0.03443,-0.974221 a 1.5073354,3.3030753 0 0 1 -0.846988,-2.968899 1.5073354,3.3030753 0 0 1 0.844025,-2.96557 c -0.03643,-0.233752 -0.08808,-0.460996 -0.157926,-0.680181 A 49.656081,4.7824338 0 0 0 72.81089,58.225833 Z m -33.058448,0.08396 a 49.656081,4.7824338 0 0 0 -10.622866,0.54296 c -0.0042,0.0615 -0.0083,0.123435 -0.0092,0.188261 a 1.5073354,3.3030753 0 0 1 1.027853,3.131639 1.5073354,3.3030753 0 0 1 -1.012318,3.119063 c 0.09361,0.521118 0.264696,1.006205 0.542961,1.441361 a 49.656081,4.7824338 0 0 0 10.122809,0.507084 c 0.271776,-0.430954 0.410687,-0.992586 0.338796,-1.760923 a 1.5073354,3.3030753 0 0 1 -0.846994,-2.968897 1.5073354,3.3030753 0 0 1 0.84403,-2.96557 c -0.06828,-0.437845 -0.189667,-0.852523 -0.385028,-1.234976 z M 27.92379,58.936342 a 49.656081,4.7824338 0 0 0 -20.0407151,3.83845 49.656081,4.7824338 0 0 0 19.9134811,3.829203 c 0.165674,-0.385141 0.240322,-0.859505 0.183823,-1.462813 a 1.5073354,3.3030753 0 0 1 -0.846989,-2.968529 1.5073354,3.3030753 0 0 1 0.84403,-2.965941 c -0.0143,-0.09164 -0.03449,-0.180835 -0.05363,-0.27037 z m 61.088966,0.139439 c -0.01825,0.129721 -0.0292,0.266908 -0.03142,0.413139 a 1.5073354,3.3030753 0 0 1 1.028218,3.131269 1.5073354,3.3030753 0 0 1 -1.012687,3.119434 c 0.04466,0.248655 0.106494,0.489442 0.189003,0.720495 a 49.656081,4.7824338 0 0 0 18.00942,-3.685326 49.656081,4.7824338 0 0 0 -18.18252,-3.699011 z" />
    <ellipse
       style="fill:#808080;stroke:none;stroke-width:0.357865;stroke-dasharray:none;stroke-opacity:0.995176"
       id="path1987-7"
       cx="57.539116"
       cy="62.774742"
       rx="12.390229"
       ry="9.7334251" />
    <text
       xml:space="preserve"
       style="font-size:2.82223px;line-height:1.25;font-family:'Fira Code';-inkscape-font-specification:'Fira Code,  weight=453';fill:#800000;stroke-width:0.264583"
       x="4.302783"
       y="51.362415"
       id="text7768-5"><tspan
         sodipodi:role="line"
         id="tspan7766-0"
         style="fill:#800000;stroke-width:0.264583"
         x="4.302783"
         y="51.362415">Hot Ionised Medium</tspan></text>
    <text
       xml:space="preserve"
       style="font-size:2.82223px;line-height:1.25;font-family:'Fira Code';-inkscape-font-specification:'Fira Code,  weight=453';fill:#800000;stroke-width:0.264583"
       x="80.0196"
       y="53.491344"
       id="text7768-5-8"><tspan
         sodipodi:role="line"
         id="tspan7766-0-0"
         style="fill:#800000;stroke-width:0.264583"
         x="80.0196"
         y="53.491344">Superbubble</tspan></text>
    <text
       xml:space="preserve"
       style="font-size:2.82223px;line-height:1.25;font-family:'Fira Code';-inkscape-font-specification:'Fira Code,  weight=453';fill:#808080;fill-opacity:1;stroke-width:0.264583"
       x="4.302783"
       y="47.664089"
       id="text7768-0-6"><tspan
         sodipodi:role="line"
         id="tspan7766-4-46"
         style="fill:#808080;fill-opacity:1;stroke-width:0.264583"
         x="4.302783"
         y="47.664089">Neutral Medium</tspan></text>
    <text
       xml:space="preserve"
       style="font-size:2.82223px;line-height:1.25;font-family:'Fira Code';-inkscape-font-specification:'Fira Code,  weight=453';fill:#ff0000;fill-opacity:1;stroke-width:0.264583"
       x="4.4185667"
       y="54.847996"
       id="text7768-0-4-2"><tspan
         sodipodi:role="line"
         id="tspan7766-4-4-5"
         style="fill:#ff0000;fill-opacity:1;stroke-width:0.264583"
         x="4.4185667"
         y="54.847996">Supernova Remnants</tspan></text>
    <text
       xml:space="preserve"
       style="font-size:4.0399px;line-height:1.25;font-family:'Fira Code';-inkscape-font-specification:'Fira Code,  weight=453';stroke-width:0.18937"
       x="38.841679"
       y="83.731613"
       id="text8716-8"><tspan
         sodipodi:role="line"
         id="tspan8714-6"
         style="font-weight:normal;font-size:4.0399px;stroke-width:0.18937"
         x="38.841679"
         y="83.731613">(B) Cox &amp; Smith</tspan></text>
    <ellipse
       style="fill:#ff0000;stroke:none;stroke-width:0.357864;stroke-dasharray:none;stroke-opacity:0.995176"
       id="path2447-06-3"
       cx="54.48632"
       cy="59.492661"
       rx="0.55519831"
       ry="0.52246648" />
    <ellipse
       style="fill:#ff0000;stroke:none;stroke-width:0.357864;stroke-dasharray:none;stroke-opacity:0.995176"
       id="path2447-06-3-4"
       cx="61.579556"
       cy="57.128254"
       rx="0.55519831"
       ry="0.52246648" />
    <ellipse
       style="fill:#ff0000;stroke:none;stroke-width:0.357864;stroke-dasharray:none;stroke-opacity:0.995176"
       id="path2447-06-3-0"
       cx="47.956036"
       cy="64.108902"
       rx="0.55519831"
       ry="0.52246648" />
    <ellipse
       style="fill:#ff0000;stroke:none;stroke-width:0.357864;stroke-dasharray:none;stroke-opacity:0.995176"
       id="path2447-06-3-3"
       cx="55.387051"
       cy="69.62587"
       rx="0.55519831"
       ry="0.52246648" />
    <ellipse
       style="fill:#ff0000;stroke:none;stroke-width:0.357864;stroke-dasharray:none;stroke-opacity:0.995176"
       id="path2447-06-3-9"
       cx="65.182472"
       cy="-65.122223"
       rx="0.55519831"
       ry="0.52246648"
       transform="scale(1,-1)" />
    <ellipse
       style="fill:#ff0000;stroke:none;stroke-width:0.357864;stroke-dasharray:none;stroke-opacity:0.995176"
       id="path2447-06-3-1"
       cx="60.566238"
       cy="63.996307"
       rx="0.55519831"
       ry="0.52246648" />
    <ellipse
       style="fill:#ff0000;stroke:none;stroke-width:0.357864;stroke-dasharray:none;stroke-opacity:0.995176"
       id="path2447-06-3-96"
       cx="55.612225"
       cy="55.551979"
       rx="0.55519831"
       ry="0.52246648" />
    <ellipse
       style="fill:#ff0000;stroke:none;stroke-width:0.357864;stroke-dasharray:none;stroke-opacity:0.995176"
       id="path2447-06-3-93"
       cx="49.307129"
       cy="60.618576"
       rx="0.55519831"
       ry="0.52246648" />
    <ellipse
       style="fill:#ff0000;stroke:none;stroke-width:0.357864;stroke-dasharray:none;stroke-opacity:0.995176"
       id="path2447-06-3-38"
       cx="71.796196"
       cy="61.107277"
       rx="0.55519831"
       ry="0.52246648" />
    <ellipse
       style="fill:#ff0000;stroke:none;stroke-width:0.357864;stroke-dasharray:none;stroke-opacity:0.995176"
       id="path2447-06-3-05"
       cx="71.298607"
       cy="62.958305"
       rx="0.55519831"
       ry="0.52246648" />
    <ellipse
       style="fill:#ff0000;stroke:none;stroke-width:0.357864;stroke-dasharray:none;stroke-opacity:0.995176"
       id="path2447-06-3-6"
       cx="72.433105"
       cy="64.271927"
       rx="0.55519831"
       ry="0.52246648" />
    <ellipse
       style="fill:#ff0000;stroke:none;stroke-width:0.357864;stroke-dasharray:none;stroke-opacity:0.995176"
       id="path2447-06-3-64"
       cx="72.930695"
       cy="62.201969"
       rx="0.55519831"
       ry="0.52246648" />
    <ellipse
       style="fill:#ff0000;stroke:none;stroke-width:0.357864;stroke-dasharray:none;stroke-opacity:0.995176"
       id="path2447-06-3-00"
       cx="70.840828"
       cy="64.252029"
       rx="0.55519831"
       ry="0.52246648" />
    <ellipse
       style="fill:#ff0000;stroke:none;stroke-width:0.357864;stroke-dasharray:none;stroke-opacity:0.995176"
       id="path2447-06-3-46"
       cx="87.320915"
       cy="60.729111"
       rx="0.55519831"
       ry="0.52246648" />
    <ellipse
       style="fill:#ff0000;stroke:none;stroke-width:0.357864;stroke-dasharray:none;stroke-opacity:0.995176"
       id="path2447-06-3-2"
       cx="87.360718"
       cy="63.177238"
       rx="0.55519831"
       ry="0.52246648" />
    <ellipse
       style="fill:#ff0000;stroke:none;stroke-width:0.357864;stroke-dasharray:none;stroke-opacity:0.995176"
       id="path2447-06-3-67"
       cx="88.793762"
       cy="61.465538"
       rx="0.55519831"
       ry="0.52246648" />
    <ellipse
       style="fill:#ff0000;stroke:none;stroke-width:0.357864;stroke-dasharray:none;stroke-opacity:0.995176"
       id="path2447-06-3-5"
       cx="89.64962"
       cy="63.316563"
       rx="0.55519831"
       ry="0.52246648" />
    <ellipse
       style="fill:#ff0000;stroke:none;stroke-width:0.357864;stroke-dasharray:none;stroke-opacity:0.995176"
       id="path2447-06-3-69"
       cx="89.251541"
       cy="64.729706"
       rx="0.55519831"
       ry="0.52246648" />
    <ellipse
       style="fill:#ff0000;stroke:none;stroke-width:0.357864;stroke-dasharray:none;stroke-opacity:0.995176"
       id="path2447-06-3-8"
       cx="87.699074"
       cy="64.729706"
       rx="0.55519831"
       ry="0.52246648" />
    <ellipse
       style="fill:#ff0000;stroke:none;stroke-width:0.357864;stroke-dasharray:none;stroke-opacity:0.995176"
       id="path2447-06-3-7"
       cx="39.851101"
       cy="64.709808"
       rx="0.55519831"
       ry="0.52246648" />
    <ellipse
       style="fill:#ff0000;stroke:none;stroke-width:0.357864;stroke-dasharray:none;stroke-opacity:0.995176"
       id="path2447-06-3-28"
       cx="39.433128"
       cy="62.381096"
       rx="0.55519831"
       ry="0.52246648" />
    <ellipse
       style="fill:#ff0000;stroke:none;stroke-width:0.357864;stroke-dasharray:none;stroke-opacity:0.995176"
       id="path2447-06-3-29"
       cx="39.652065"
       cy="-60.311142"
       rx="0.55519831"
       ry="0.52246648"
       transform="scale(1,-1)" />
    <ellipse
       style="fill:#ff0000;stroke:none;stroke-width:0.357864;stroke-dasharray:none;stroke-opacity:0.995176"
       id="path2447-06-3-960"
       cx="41.264248"
       cy="61.226696"
       rx="0.55519831"
       ry="0.52246648" />
    <ellipse
       style="fill:#ff0000;stroke:none;stroke-width:0.357864;stroke-dasharray:none;stroke-opacity:0.995176"
       id="path2447-06-3-27"
       cx="40.9856"
       cy="-63.137432"
       rx="0.55519831"
       ry="0.52246648"
       transform="scale(1,-1)" />
    <ellipse
       style="fill:#ff0000;stroke:none;stroke-width:0.357864;stroke-dasharray:none;stroke-opacity:0.995176"
       id="path2447-06-3-61"
       cx="41.861351"
       cy="60.430557"
       rx="0.55519831"
       ry="0.52246648" />
    <ellipse
       style="fill:#ff0000;stroke:none;stroke-width:0.357864;stroke-dasharray:none;stroke-opacity:0.995176"
       id="path2447-06-3-32"
       cx="42.080292"
       cy="64.470963"
       rx="0.55519831"
       ry="0.52246648" />
    <ellipse
       style="fill:#ff0000;stroke:none;stroke-width:0.357864;stroke-dasharray:none;stroke-opacity:0.995176"
       id="path2447-06-3-15"
       cx="27.789591"
       cy="64.212219"
       rx="0.55519831"
       ry="0.52246648" />
    <ellipse
       style="fill:#ff0000;stroke:none;stroke-width:0.357864;stroke-dasharray:none;stroke-opacity:0.995176"
       id="path2447-06-3-99"
       cx="29.043509"
       cy="64.749611"
       rx="0.55519831"
       ry="0.52246648" />
    <ellipse
       style="fill:#ff0000;stroke:none;stroke-width:0.357864;stroke-dasharray:none;stroke-opacity:0.995176"
       id="path2447-06-3-14"
       cx="29.660521"
       cy="62.89859"
       rx="0.55519831"
       ry="0.52246648" />
    <ellipse
       style="fill:#ff0000;stroke:none;stroke-width:0.357864;stroke-dasharray:none;stroke-opacity:0.995176"
       id="path2447-06-3-91"
       cx="26.376442"
       cy="-62.162159"
       rx="0.55519831"
       ry="0.52246648"
       transform="scale(1,-1)" />
    <ellipse
       style="fill:#ff0000;stroke:none;stroke-width:0.357864;stroke-dasharray:none;stroke-opacity:0.995176"
       id="path2447-06-3-07"
       cx="27.889109"
       cy="61.326214"
       rx="0.55519831"
       ry="0.52246648" />
    <ellipse
       style="fill:#ff0000;stroke:none;stroke-width:0.357864;stroke-dasharray:none;stroke-opacity:0.995176"
       id="path2447-06-3-58"
       cx="28.287178"
       cy="62.60004"
       rx="0.55519831"
       ry="0.52246648" />
    <ellipse
       style="fill:#ff0000;stroke:none;stroke-width:0.357864;stroke-dasharray:none;stroke-opacity:0.995176"
       id="path2447-06-3-70"
       cx="29.939169"
       cy="60.967953"
       rx="0.55519831"
       ry="0.52246648" />
    <ellipse
       style="fill:#ff0000;stroke:none;stroke-width:0.357864;stroke-dasharray:none;stroke-opacity:0.995176"
       id="path2447-06-3-48"
       cx="28.346888"
       cy="60.191715"
       rx="0.55519831"
       ry="0.52246648" />
    <ellipse
       style="fill:#ff0000;stroke:none;stroke-width:0.357864;stroke-dasharray:none;stroke-opacity:0.995176"
       id="path2447-06-3-04"
       cx="54.261139"
       cy="65.572586"
       rx="0.55519831"
       ry="0.52246648" />
    <ellipse
       style="fill:#ff0000;stroke:none;stroke-width:0.357864;stroke-dasharray:none;stroke-opacity:0.995176"
       id="path2447-06-3-296"
       cx="34.445099"
       cy="63.771126"
       rx="0.55519831"
       ry="0.52246648" />
    <ellipse
       style="fill:#ff0000;stroke:none;stroke-width:0.357864;stroke-dasharray:none;stroke-opacity:0.995176"
       id="path2447-06-3-10"
       cx="21.384535"
       cy="61.857075"
       rx="0.55519831"
       ry="0.52246648" />
    <ellipse
       style="fill:#ff0000;stroke:none;stroke-width:0.357864;stroke-dasharray:none;stroke-opacity:0.995176"
       id="path2447-06-3-42"
       cx="11.138743"
       cy="62.98299"
       rx="0.55519831"
       ry="0.52246648" />
    <ellipse
       style="fill:#ff0000;stroke:none;stroke-width:0.357864;stroke-dasharray:none;stroke-opacity:0.995176"
       id="path2447-06-3-22"
       cx="78.580818"
       cy="62.757805"
       rx="0.55519831"
       ry="0.52246648" />
    <ellipse
       style="fill:#ff0000;stroke:none;stroke-width:0.357864;stroke-dasharray:none;stroke-opacity:0.995176"
       id="path2447-06-3-055"
       cx="83.084457"
       cy="-64.221489"
       rx="0.55519831"
       ry="0.52246648"
       transform="scale(1,-1)" />
    <ellipse
       style="fill:#ff0000;stroke:none;stroke-width:0.357864;stroke-dasharray:none;stroke-opacity:0.995176"
       id="path2447-06-3-290"
       cx="94.906525"
       cy="62.08226"
       rx="0.55519831"
       ry="0.52246648" />
    <ellipse
       style="fill:#ff0000;stroke:none;stroke-width:0.357864;stroke-dasharray:none;stroke-opacity:0.995176"
       id="path2447-06-3-283"
       cx="101.77459"
       cy="63.095581"
       rx="0.55519831"
       ry="0.52246648" />
    <ellipse
       style="opacity:1;fill:none;fill-opacity:1;stroke:#800000;stroke-width:0.300922;stroke-dasharray:0.300922, 0.300922;stroke-dashoffset:0;stroke-opacity:1"
       id="path10981"
       cx="88.496094"
       cy="62.825127"
       rx="3.6036766"
       ry="6.0460162" />
  </g>
</svg>
