<?xml version="1.0" encoding="UTF-8" standalone="no"?>
<!-- Created with Inkscape (http://www.inkscape.org/) -->

<svg
   width="4.179956in"
   height="1.1213199in"
   viewBox="0 0 106.17089 28.481525"
   version="1.1"
   id="svg2793"
   inkscape:version="1.2.2 (b0a8486541, 2022-12-01)"
   sodipodi:docname="segmentation_watershed.svg"
   inkscape:export-filename="../thesis/figs/segmentation_watershed.pdf"
   inkscape:export-xdpi="300"
   inkscape:export-ydpi="300"
   xmlns:inkscape="http://www.inkscape.org/namespaces/inkscape"
   xmlns:sodipodi="http://sodipodi.sourceforge.net/DTD/sodipodi-0.dtd"
   xmlns="http://www.w3.org/2000/svg"
   xmlns:svg="http://www.w3.org/2000/svg">
  <sodipodi:namedview
     id="namedview2795"
     pagecolor="#ffffff"
     bordercolor="#666666"
     borderopacity="1.0"
     inkscape:showpageshadow="2"
     inkscape:pageopacity="0.0"
     inkscape:pagecheckerboard="0"
     inkscape:deskcolor="#d1d1d1"
     inkscape:document-units="mm"
     showgrid="false"
     showguides="true"
     inkscape:zoom="1.7841816"
     inkscape:cx="237.36373"
     inkscape:cy="28.024053"
     inkscape:window-width="1920"
     inkscape:window-height="1043"
     inkscape:window-x="0"
     inkscape:window-y="0"
     inkscape:window-maximized="1"
     inkscape:current-layer="layer1" />
  <defs
     id="defs2790">
    <marker
       style="overflow:visible"
       id="TriangleStart"
       refX="0"
       refY="0"
       orient="auto-start-reverse"
       inkscape:stockid="TriangleStart"
       markerWidth="5.3244081"
       markerHeight="6.155385"
       viewBox="0 0 5.3244081 6.1553851"
       inkscape:isstock="true"
       inkscape:collect="always"
       preserveAspectRatio="xMidYMid">
      <path
         transform="scale(0.5)"
         style="fill:context-stroke;fill-rule:evenodd;stroke:context-stroke;stroke-width:1pt"
         d="M 5.77,0 -2.88,5 V -5 Z"
         id="path135" />
    </marker>
  </defs>
  <g
     inkscape:label="Layer 1"
     inkscape:groupmode="layer"
     id="layer1"
     transform="translate(-110.84322,52.588661)">
    <g
       id="g3105"
       transform="matrix(0.82409036,0,0,0.82409036,19.498391,-9.2508343)">
      <g
         id="g1312"
         transform="translate(110.84322,-52.588559)">
        <rect
           style="fill:#ffffff;stroke:#000000;stroke-width:0.3188;stroke-dasharray:none;stroke-opacity:0.995176"
           id="rect111"
           width="24.6812"
           height="24.6812"
           x="0.15939999"
           y="0.15939999" />
        <path
           sodipodi:type="star"
           style="fill:none;stroke:#0000ff;stroke-width:0.25;stroke-dasharray:none;stroke-opacity:0.995176"
           id="path950"
           inkscape:flatsided="false"
           sodipodi:sides="4"
           sodipodi:cx="5.3784733"
           sodipodi:cy="5.2749319"
           sodipodi:r1="2.448488"
           sodipodi:r2="0.02448488"
           sodipodi:arg1="1.0529965"
           sodipodi:arg2="1.8383947"
           inkscape:rounded="0"
           inkscape:randomized="0"
           d="M 6.5904004,7.4024483 5.3719991,5.2985453 3.2509568,6.486859 5.3548599,5.2684577 4.1665462,3.1474155 5.3849475,5.2513185 7.5059897,4.0630048 5.4020867,5.2814061 Z"
           inkscape:transform-center-x="-0.095257256"
           inkscape:transform-center-y="-0.17452782"
           transform="matrix(1.1414694,0,0,1.1405797,-2.3383245,-2.259646)" />
        <path
           sodipodi:type="star"
           style="fill:none;stroke:#ff0000;stroke-width:0.25;stroke-dasharray:none;stroke-opacity:0.995176"
           id="path950-3"
           inkscape:flatsided="false"
           sodipodi:sides="4"
           sodipodi:cx="5.3784733"
           sodipodi:cy="5.2749319"
           sodipodi:r1="2.448488"
           sodipodi:r2="0.02448488"
           sodipodi:arg1="1.0529965"
           sodipodi:arg2="1.8383947"
           inkscape:rounded="0"
           inkscape:randomized="0"
           d="M 6.5904004,7.4024483 5.3719991,5.2985453 3.2509568,6.486859 5.3548599,5.2684577 4.1665462,3.1474155 5.3849475,5.2513185 7.5059897,4.0630048 5.4020867,5.2814061 Z"
           inkscape:transform-center-x="-0.095257256"
           inkscape:transform-center-y="-0.17452782"
           transform="matrix(1.1414694,0,0,1.1405797,0.60661759,13.633788)" />
        <path
           sodipodi:type="star"
           style="fill:none;stroke:#008000;stroke-width:0.25;stroke-dasharray:none;stroke-opacity:0.995176"
           id="path950-3-6"
           inkscape:flatsided="false"
           sodipodi:sides="4"
           sodipodi:cx="5.3784733"
           sodipodi:cy="5.2749319"
           sodipodi:r1="2.448488"
           sodipodi:r2="0.02448488"
           sodipodi:arg1="1.0529965"
           sodipodi:arg2="1.8383947"
           inkscape:rounded="0"
           inkscape:randomized="0"
           d="M 6.5904004,7.4024483 5.3719991,5.2985453 3.2509568,6.486859 5.3548599,5.2684577 4.1665462,3.1474155 5.3849475,5.2513185 7.5059897,4.0630048 5.4020867,5.2814061 Z"
           inkscape:transform-center-x="-0.095257256"
           inkscape:transform-center-y="-0.17452782"
           transform="matrix(1.1414694,0,0,1.1405797,12.978196,4.6502992)" />
      </g>
    </g>
    <g
       id="g3111"
       transform="matrix(0.82409036,0,0,0.82409036,19.464215,-9.2508343)">
      <path
         style="fill:#008000;stroke:none;stroke-width:0.264583px;stroke-linecap:butt;stroke-linejoin:miter;stroke-opacity:1"
         d="m 156.43037,-46.864589 c -0.18783,1.8985 -5.66487,0.597385 -5.68372,3.17261 0.32066,2.168204 -1.32565,4.843999 1.44852,6.379054 0.58525,0.388937 1.44114,-1.45957 3.67848,2.419053 0.81432,1.202181 5.80886,-0.97542 5.84118,-3.188125 l 0.002,-9.723222 c -0.64925,-1.897507 -1.991,-1.76511 -3.3101,-1.699063 l -4.81237,0.153468 c -0.55295,-0.0083 -0.67069,0.109747 -0.52797,0.303362 0.37719,0.5117 3.6938,1.478677 3.36358,2.182863 z"
         id="path1257"
         sodipodi:nodetypes="ccccccccsc" />
      <path
         style="fill:#0000ff;stroke:none;stroke-width:0.264583px;stroke-linecap:butt;stroke-linejoin:miter;stroke-opacity:1"
         d="m 136.99862,-52.455769 -0.0224,10.012951 c 7.59122,-0.794518 9.53004,-4.870685 9.69544,-9.976452 z"
         id="path1159"
         sodipodi:nodetypes="cccc" />
      <rect
         style="fill:none;stroke:#000000;stroke-width:0.3188;stroke-dasharray:none;stroke-opacity:0.995176"
         id="rect111-7"
         width="24.6812"
         height="24.6812"
         x="137.00262"
         y="-52.429157" />
      <path
         style="fill:#ff0000;stroke:none;stroke-width:0.264583px;stroke-linecap:butt;stroke-linejoin:miter;stroke-opacity:1"
         d="m 142.02862,-33.612542 c 0.17454,0.931128 0.43969,1.755501 0.93534,2.308278 0.1869,0.678404 -1.5766,0.106428 -0.69077,1.236724 1.34047,2.431762 3.57559,-0.841704 4.38888,-2.094337 1.50528,-0.629669 0.13566,-1.187705 -2.20318,-2.630413 -0.46695,-0.889353 2.41492,-2.015336 0.11194,-1.559238 -1.73962,0.243802 -3.11334,0.762046 -2.54221,2.738986 z"
         id="path1259"
         sodipodi:nodetypes="ccccccc" />
    </g>
    <path
       style="fill:none;stroke:#000000;stroke-width:0.260044px;stroke-linecap:butt;stroke-linejoin:miter;stroke-opacity:1;marker-end:url(#TriangleStart)"
       d="m 116.3139,-29.371943 94.30725,0.03824"
       id="path2211" />
    <text
       xml:space="preserve"
       style="font-size:3.52777px;line-height:1.25;font-family:'Fira Code';-inkscape-font-specification:'Fira Code,  weight=453';stroke-width:0.264583"
       x="140.00557"
       y="-24.874199"
       id="text2676"><tspan
         sodipodi:role="line"
         id="tspan2674"
         style="stroke-width:0.264583"
         x="140.00557"
         y="-24.874199">increasing water level</tspan></text>
    <g
       id="g3235"
       transform="matrix(0.82409036,0,0,0.82409036,19.430045,-9.2508343)">
      <path
         id="path1306"
         style="fill:#0000ff;stroke:none;stroke-width:0.264583px;stroke-linecap:butt;stroke-linejoin:miter;stroke-opacity:1"
         d="m 175.7483,-52.411309 -12.76098,-0.01705 0.0388,13.42192 c 0.58294,0.851809 0.24489,2.957381 1.85002,2.417423 1.97974,-1.142617 4.68708,-0.233731 5.33611,-1.269173 0.89485,-1.680985 2.46796,-2.901425 2.68459,-5.042586 0.0341,-0.663714 0.14269,-1.294459 0.30799,-1.858802 0.44032,-1.503307 1.28291,-2.537163 2.19211,-2.479951 0.192,0.0099 0.3504,0.04896 0.48266,0.112137 0.0191,-0.01442 0.0384,-0.02845 0.0574,-0.04289 0.0229,-0.01741 0.0457,-0.03524 0.0682,-0.05271 0.0225,-0.01747 0.0452,-0.03464 0.0672,-0.05219 0.022,-0.01756 0.0438,-0.03555 0.0651,-0.05323 0.0213,-0.01768 0.0421,-0.0354 0.0625,-0.05323 0.0205,-0.01783 0.0405,-0.03573 0.0599,-0.05374 0.0194,-0.01801 0.0381,-0.03604 0.0563,-0.05426 0.0182,-0.01822 0.0359,-0.03631 0.0527,-0.05478 0.008,-0.0092 0.0163,-0.01861 0.0243,-0.02791 0.008,-0.0093 0.0162,-0.01854 0.0238,-0.02791 0.008,-0.0094 0.015,-0.01898 0.0222,-0.02842 0.007,-0.0094 0.0139,-0.0189 0.0207,-0.02842 0.007,-0.0095 0.0134,-0.01882 0.0196,-0.02842 0.006,-0.0096 0.0123,-0.01925 0.0181,-0.02894 0.006,-0.0097 0.0113,-0.01968 0.0165,-0.02945 0.005,-0.0098 0.0103,-0.01959 0.015,-0.02946 0.005,-0.0099 0.009,-0.01949 0.0134,-0.02946 0.004,-0.01 0.008,-0.02043 0.0114,-0.03049 0.004,-0.01006 0.007,-0.0198 0.0103,-0.02997 0.003,-0.01017 0.005,-0.02073 0.008,-0.03101 0.002,-0.01028 0.004,-0.02062 0.006,-0.03101 0.002,-0.01039 0.003,-0.0205 0.004,-0.03101 0.001,-0.0105 0.002,-0.02142 0.003,-0.03204 3.8e-4,-0.01062 3.4e-4,-0.0213 0,-0.03204 -3.3e-4,-0.01074 -10e-4,-0.02117 -0.002,-0.03204 -0.001,-0.01087 -0.003,-0.02207 -0.005,-0.03307 -0.002,-0.011 -0.004,-0.02194 -0.007,-0.03307 -0.003,-0.01114 -0.005,-0.02232 -0.009,-0.03359 -0.003,-0.01127 -0.007,-0.02269 -0.0114,-0.03411 -0.004,-0.01141 -0.009,-0.02306 -0.014,-0.03462 -0.005,-0.01156 -0.0106,-0.02291 -0.0165,-0.03462 -0.006,-0.01171 -0.0118,-0.02379 -0.0186,-0.03566 -0.007,-0.01186 -0.0145,-0.02364 -0.0222,-0.03566 -0.008,-0.01202 -0.0157,-0.02399 -0.0243,-0.03617 -0.009,-0.01218 -0.0178,-0.02434 -0.0274,-0.03669 -0.01,-0.01235 -0.0194,-0.02469 -0.03,-0.03721 -0.0105,-0.01251 -0.0215,-0.02555 -0.0331,-0.03824 -0.0115,-0.01269 -0.0236,-0.02538 -0.0362,-0.03824 -0.0126,-0.01286 -0.0257,-0.02571 -0.0393,-0.03876 -0.0136,-0.01304 -0.0277,-0.02605 -0.0424,-0.03927 -0.0147,-0.01323 -0.0302,-0.02689 -0.046,-0.04031 -0.0157,-0.01341 -0.0317,-0.0267 -0.0486,-0.04031 -0.0478,-0.03422 -0.0966,-0.06851 -0.14625,-0.102836 -0.0496,-0.03433 -0.0999,-0.06846 -0.15037,-0.102836 -0.0505,-0.03438 -0.10143,-0.06897 -0.15193,-0.103353 -0.0505,-0.03438 -0.1008,-0.06851 -0.15038,-0.102836 -0.0496,-0.03433 -0.0985,-0.06862 -0.14625,-0.102836 -0.0239,-0.01711 -0.0476,-0.03461 -0.0708,-0.05168 -0.0233,-0.01707 -0.0462,-0.03413 -0.0687,-0.05116 -0.0225,-0.01703 -0.0445,-0.03367 -0.0661,-0.05064 -0.0216,-0.01698 -0.0429,-0.03424 -0.0636,-0.05116 -0.0207,-0.01692 -0.0409,-0.03379 -0.0605,-0.05064 -0.0196,-0.01685 -0.0385,-0.03335 -0.0568,-0.05013 -0.0184,-0.01678 -0.0361,-0.03394 -0.0532,-0.05064 -0.0171,-0.0167 -0.0334,-0.03299 -0.0491,-0.04961 -0.0156,-0.01662 -0.0303,-0.0336 -0.0445,-0.05013 -0.007,-0.0083 -0.014,-0.01605 -0.0207,-0.02429 -0.007,-0.0082 -0.0134,-0.01659 -0.0196,-0.0248 -0.006,-0.0082 -0.0118,-0.01662 -0.0176,-0.02481 -0.006,-0.0082 -0.0117,-0.01613 -0.0171,-0.02429 -0.005,-0.0082 -0.0101,-0.01667 -0.015,-0.02481 -0.005,-0.0081 -0.01,-0.01618 -0.014,-0.02429 -0.004,-0.0081 -0.008,-0.01621 -0.0124,-0.02429 -0.004,-0.0081 -0.008,-0.01573 -0.0114,-0.02377 -0.003,-0.008 -0.006,-0.01627 -0.009,-0.02429 -0.003,-0.008 -0.005,-0.0163 -0.008,-0.02429 -0.002,-0.008 -0.004,-0.01582 -0.006,-0.02377 -0.002,-0.008 -0.003,-0.01585 -0.005,-0.02377 -0.001,-0.0079 -0.002,-0.01589 -0.003,-0.02377 -6.5e-4,-0.0079 -9.7e-4,-0.01541 -0.001,-0.02325 -6e-5,-0.0078 -3e-5,-0.01596 5.2e-4,-0.02377 5.4e-4,-0.0078 0.001,-0.01548 0.003,-0.02325 10e-4,-0.0078 0.003,-0.01552 0.005,-0.02325 0.002,-0.0077 0.004,-0.01556 0.006,-0.02325 0.002,-0.0077 0.005,-0.01508 0.008,-0.02274 0.003,-0.0077 0.007,-0.01564 0.0103,-0.02326 0.004,-0.0076 0.008,-0.01516 0.0124,-0.02274 0.004,-0.0076 0.009,-0.0152 0.0145,-0.02274 0.005,-0.0075 0.0106,-0.01473 0.0165,-0.02222 0.006,-0.0075 0.0125,-0.01529 0.0191,-0.02274 0.007,-0.0074 0.0133,-0.01482 0.0207,-0.02222 0.007,-0.0074 0.0156,-0.01486 0.0238,-0.02222 0.0184,-0.01661 0.0362,-0.03316 0.0537,-0.04961 0.0176,-0.01645 0.0349,-0.03279 0.0517,-0.04909 0.0168,-0.0163 0.033,-0.03242 0.0491,-0.04858 0.0161,-0.01616 0.0317,-0.03204 0.047,-0.04806 0.0153,-0.01602 0.0304,-0.03218 0.045,-0.04806 0.0146,-0.01588 0.029,-0.0318 0.0429,-0.04754 0.0139,-0.01574 0.0271,-0.03141 0.0403,-0.04703 0.0132,-0.01561 0.0262,-0.03103 0.0388,-0.04651 0.0125,-0.01548 0.0248,-0.03115 0.0367,-0.04651 0.0119,-0.01536 0.0234,-0.03024 0.0346,-0.04548 0.0113,-0.01524 0.0224,-0.03036 0.0331,-0.04547 0.0106,-0.01512 0.0209,-0.03047 0.031,-0.04548 0.0101,-0.01501 0.02,-0.03006 0.0295,-0.04496 0.009,-0.0149 0.0185,-0.02965 0.0274,-0.04444 0.009,-0.01479 0.0174,-0.02924 0.0258,-0.04392 0.008,-0.01468 0.0169,-0.02934 0.0248,-0.04392 0.008,-0.01458 0.0154,-0.02944 0.0227,-0.04393 0.007,-0.01449 0.0143,-0.02901 0.0212,-0.04341 0.007,-0.0144 0.0137,-0.02858 0.0202,-0.04289 0.006,-0.01431 0.0126,-0.02867 0.0186,-0.04289 0.006,-0.01422 0.012,-0.02824 0.0176,-0.04237 0.006,-0.01414 0.0109,-0.02831 0.016,-0.04237 0.005,-0.01406 0.01,-0.02787 0.0145,-0.04186 0.005,-0.01398 0.01,-0.02795 0.0139,-0.04186 0.004,-0.01391 0.008,-0.02801 0.0124,-0.04186 0.004,-0.01384 0.008,-0.02756 0.0119,-0.04134 0.007,-0.02756 0.014,-0.05484 0.0202,-0.08217 0.006,-0.02732 0.0115,-0.05453 0.0165,-0.08165 0.005,-0.02712 0.01,-0.0542 0.0139,-0.08113 0.004,-0.02693 0.008,-0.05383 0.0114,-0.08061 0.003,-0.02678 0.006,-0.05344 0.009,-0.0801 0.003,-0.02666 0.005,-0.05354 0.007,-0.0801 0.002,-0.02656 0.004,-0.05309 0.006,-0.07958 0.004,-0.05299 0.007,-0.105759 0.01,-0.158647 0.003,-0.05289 0.007,-0.105633 0.0103,-0.158646 0.002,-0.02651 0.004,-0.053 0.006,-0.07958 6.9e-4,-0.0081 0.002,-0.01621 0.003,-0.02429 z" />
      <path
         id="path3097"
         style="fill:#008000;stroke:none;stroke-width:0.264583px;stroke-linecap:butt;stroke-linejoin:miter;stroke-opacity:1"
         d="m 175.7483,-52.411309 c -7.4e-4,0.0081 -0.002,0.01622 -0.003,0.02429 -0.002,0.02658 -0.004,0.05307 -0.006,0.07958 -0.004,0.05301 -0.007,0.105759 -0.0103,0.158646 -0.003,0.05289 -0.006,0.105658 -0.01,0.158647 -0.002,0.02649 -0.004,0.05302 -0.006,0.07958 -0.002,0.02656 -0.005,0.05344 -0.007,0.0801 -0.003,0.02666 -0.005,0.05332 -0.009,0.0801 -0.003,0.02678 -0.007,0.05368 -0.0114,0.08061 -0.004,0.02693 -0.009,0.05402 -0.0139,0.08113 -0.005,0.02712 -0.0104,0.05432 -0.0165,0.08165 -0.006,0.02732 -0.0128,0.05461 -0.0202,0.08217 -0.004,0.01378 -0.008,0.0275 -0.0119,0.04134 -0.004,0.01385 -0.008,0.02795 -0.0124,0.04186 -0.004,0.01391 -0.009,0.02787 -0.0139,0.04186 -0.005,0.01398 -0.009,0.0278 -0.0145,0.04186 -0.005,0.01406 -0.0105,0.02824 -0.016,0.04237 -0.006,0.01414 -0.0116,0.02815 -0.0176,0.04237 -0.006,0.01422 -0.0122,0.02859 -0.0186,0.04289 -0.006,0.01431 -0.0133,0.0285 -0.0202,0.04289 -0.007,0.0144 -0.0138,0.02892 -0.0212,0.04341 -0.007,0.01449 -0.0149,0.02934 -0.0227,0.04393 -0.008,0.01458 -0.0164,0.02924 -0.0248,0.04392 -0.008,0.01469 -0.0169,0.02914 -0.0258,0.04392 -0.009,0.01479 -0.0179,0.02955 -0.0274,0.04444 -0.009,0.01489 -0.0194,0.02995 -0.0295,0.04496 -0.0101,0.01501 -0.0203,0.03036 -0.031,0.04548 -0.0107,0.01512 -0.0218,0.03024 -0.0331,0.04547 -0.0113,0.01524 -0.0227,0.03012 -0.0346,0.04548 -0.0119,0.01536 -0.0242,0.03103 -0.0367,0.04651 -0.0125,0.01548 -0.0256,0.0309 -0.0388,0.04651 -0.0132,0.01561 -0.0264,0.03128 -0.0403,0.04703 -0.0139,0.01574 -0.0283,0.03166 -0.0429,0.04754 -0.0146,0.01588 -0.0296,0.03204 -0.045,0.04806 -0.0153,0.01602 -0.031,0.0319 -0.047,0.04806 -0.0161,0.01616 -0.0323,0.03227 -0.0491,0.04858 -0.0168,0.0163 -0.0341,0.03264 -0.0517,0.04909 -0.0176,0.01645 -0.0354,0.033 -0.0537,0.04961 -0.008,0.0074 -0.0164,0.01482 -0.0238,0.02222 -0.007,0.0074 -0.014,0.01477 -0.0207,0.02222 -0.007,0.0074 -0.0132,0.01525 -0.0191,0.02274 -0.006,0.0075 -0.0113,0.01469 -0.0165,0.02222 -0.005,0.0075 -0.01,0.01516 -0.0145,0.02274 -0.004,0.0076 -0.009,0.01512 -0.0124,0.02274 -0.004,0.0076 -0.007,0.0156 -0.0103,0.02326 -0.003,0.0077 -0.006,0.01504 -0.008,0.02274 -0.002,0.0077 -0.004,0.01552 -0.006,0.02325 -0.002,0.0077 -0.003,0.01548 -0.005,0.02325 -0.001,0.0078 -0.002,0.01544 -0.003,0.02325 -5.5e-4,0.0078 -5.8e-4,0.01592 -5.2e-4,0.02377 6e-5,0.0078 3.8e-4,0.01537 0.001,0.02325 6.6e-4,0.0079 0.001,0.01585 0.003,0.02377 10e-4,0.0079 0.003,0.01582 0.005,0.02377 0.002,0.008 0.004,0.01579 0.006,0.02377 0.002,0.008 0.005,0.01627 0.008,0.02429 0.003,0.008 0.006,0.01624 0.009,0.02429 0.003,0.008 0.007,0.0157 0.0114,0.02377 0.004,0.0081 0.008,0.01618 0.0124,0.02429 0.004,0.0081 0.009,0.01615 0.014,0.02429 0.005,0.0081 0.01,0.01664 0.015,0.02481 0.005,0.0082 0.0113,0.0161 0.0171,0.02429 0.006,0.0082 0.0113,0.01659 0.0176,0.02481 0.006,0.0082 0.013,0.01656 0.0196,0.0248 0.007,0.0082 0.0136,0.01602 0.0207,0.02429 0.0141,0.01653 0.0288,0.03351 0.0445,0.05013 0.0156,0.01662 0.032,0.03291 0.0491,0.04961 0.0171,0.0167 0.0348,0.03386 0.0532,0.05064 0.0184,0.01678 0.0373,0.03327 0.0568,0.05013 0.0196,0.01685 0.0398,0.03373 0.0605,0.05064 0.0207,0.01692 0.0419,0.03418 0.0636,0.05116 0.0216,0.01698 0.0437,0.03362 0.0661,0.05064 0.0225,0.01703 0.0455,0.03409 0.0687,0.05116 0.0232,0.01707 0.0469,0.03457 0.0708,0.05168 0.0478,0.03421 0.0967,0.06851 0.14625,0.102836 0.0496,0.03432 0.0999,0.06846 0.15038,0.102836 0.0505,0.03438 0.10142,0.06897 0.15193,0.103353 0.0505,0.03438 0.10077,0.06851 0.15037,0.102836 0.0496,0.03433 0.0985,0.06862 0.14625,0.102836 0.0169,0.0136 0.0328,0.02689 0.0486,0.04031 0.0157,0.01341 0.0313,0.02708 0.046,0.04031 0.0147,0.01323 0.0288,0.02623 0.0424,0.03927 0.0136,0.01304 0.0267,0.02589 0.0393,0.03876 0.0126,0.01286 0.0246,0.02555 0.0362,0.03824 0.0115,0.01269 0.0225,0.02573 0.0331,0.03824 0.0106,0.01251 0.0204,0.02486 0.03,0.03721 0.01,0.01235 0.0188,0.02451 0.0274,0.03669 0.009,0.01218 0.0166,0.02415 0.0243,0.03617 0.008,0.01202 0.0154,0.02379 0.0222,0.03566 0.007,0.01186 0.0127,0.02395 0.0186,0.03566 0.006,0.01171 0.0115,0.02306 0.0165,0.03462 0.005,0.01156 0.01,0.02321 0.014,0.03462 0.004,0.01142 0.008,0.02283 0.0114,0.03411 0.003,0.01127 0.006,0.02245 0.009,0.03359 0.003,0.01114 0.005,0.02207 0.007,0.03307 0.002,0.011 0.004,0.0222 0.005,0.03307 0.001,0.01087 0.002,0.0213 0.002,0.03204 3.4e-4,0.01074 3.8e-4,0.02142 0,0.03204 -3.7e-4,0.01062 -0.002,0.02154 -0.003,0.03204 -10e-4,0.0105 -0.002,0.02062 -0.004,0.03101 -0.002,0.01039 -0.004,0.02073 -0.006,0.03101 -0.002,0.01028 -0.005,0.02084 -0.008,0.03101 -0.003,0.01017 -0.007,0.01991 -0.0103,0.02997 -0.004,0.01006 -0.007,0.02053 -0.0114,0.03049 -0.004,0.01 -0.009,0.01959 -0.0134,0.02946 -0.005,0.0099 -0.01,0.01968 -0.015,0.02946 -0.005,0.0098 -0.0108,0.01977 -0.0165,0.02945 -0.006,0.0097 -0.0118,0.01934 -0.0181,0.02894 -0.006,0.0096 -0.0129,0.0189 -0.0196,0.02842 -0.007,0.0095 -0.0135,0.01898 -0.0207,0.02842 -0.007,0.0094 -0.0146,0.01905 -0.0222,0.02842 -0.008,0.0094 -0.0158,0.01861 -0.0238,0.02791 -0.008,0.0093 -0.0159,0.01867 -0.0243,0.02791 -0.0168,0.01846 -0.0345,0.03655 -0.0527,0.05478 -0.0182,0.01822 -0.0369,0.03625 -0.0563,0.05426 -0.0194,0.01801 -0.0395,0.03591 -0.0599,0.05374 -0.0205,0.01783 -0.0412,0.03555 -0.0625,0.05323 -0.0213,0.01768 -0.0431,0.03567 -0.0651,0.05323 -0.022,0.01756 -0.0446,0.03473 -0.0672,0.05219 -0.0225,0.01747 -0.0453,0.0353 -0.0682,0.05271 -0.019,0.01444 -0.0382,0.02847 -0.0574,0.04289 1.04053,0.497062 0.37311,2.552888 0.18604,4.783171 -0.72983,4.311498 -0.84373,5.047851 0.11782,5.392952 1.41487,0.306308 5.00228,0.08607 3.50521,1.098125 -1.30308,1.067009 -3.75788,1.726922 -3.90932,3.200838 -0.25691,1.036694 -2.46207,3.357058 -0.7705,3.110404 1.61407,0.05407 3.38392,0.154769 3.87263,-1.185974 0.3697,-1.015681 0.21521,-3.192128 1.12138,-3.019971 1.55895,-0.396219 -0.1885,3.655037 1.46038,3.828191 1.88631,0.104985 0.38391,-4.071967 2.3735,-3.794084 l 3.78271,0.09715 0.0817,-18.778699 z" />
      <rect
         style="fill:none;stroke:#000000;stroke-width:0.3188;stroke-dasharray:none;stroke-opacity:0.995176"
         id="rect111-7-9"
         width="24.6812"
         height="24.6812"
         x="163.00262"
         y="-52.429157" />
      <path
         style="fill:#ff0000;stroke:none;stroke-width:0.265;stroke-linecap:butt;stroke-linejoin:miter;stroke-dasharray:none;stroke-opacity:1"
         d="m 166.86245,-34.263547 c 0.17454,0.931128 -1.46227,2.08638 -0.96662,2.639157 0.1869,0.678405 1.49152,0.426554 2.37736,1.556849 1.55381,1.768809 2.7889,0.01232 3.75916,-0.966133 1.0491,-1.206806 1.80608,-2.179256 -0.53276,-3.621963 -0.46695,-0.889353 1.37422,-2.151989 -0.92877,-1.695891 -1.73962,0.243802 -3.80817,0.683128 -3.70837,2.087981 z"
         id="path1259-1" />
      <path
         style="fill:none;stroke:#000000;stroke-width:0.24356px;stroke-linecap:butt;stroke-linejoin:miter;stroke-opacity:1"
         d="m 175.83509,-47.129648 c 0.6241,-0.484851 1.28362,-0.991781 0.24282,-1.675647 -0.77062,-0.460306 -1.75526,-0.964643 -1.22921,-1.360608 1.18573,-0.89357 0.71309,-1.520967 1.00595,-2.27123"
         id="path3058"
         sodipodi:nodetypes="cccc" />
    </g>
    <g
       id="g3384">
      <path
         id="path3225"
         style="fill:#0000ff;stroke:none;stroke-width:0.21804px;stroke-linecap:butt;stroke-linejoin:miter;stroke-opacity:1"
         d="m 186.32711,-52.456116 -11.17288,0.0021 0.0315,20.428527 3.69008,-0.02214 c -0.15129,-0.431059 0.19268,-1.283679 -0.53573,-1.223923 -2.68878,-0.100274 -0.83599,-4.855784 0.0605,-5.266617 0.013,-0.01905 0.0252,-0.03878 0.0387,-0.05749 0.0293,-0.04055 0.0601,-0.0799 0.0916,-0.118815 0.0315,-0.03891 0.064,-0.07737 0.0975,-0.114557 0.0335,-0.03719 0.0677,-0.07323 0.10306,-0.108595 0.0353,-0.03537 0.0715,-0.07002 0.10859,-0.103483 0.003,-0.0026 0.006,-0.005 0.009,-0.0077 -0.8189,-0.296768 -1.46327,-1.298442 -0.56852,-1.510101 1.51056,-0.282359 2.89255,-2.039961 4.53158,-0.847037 0.14575,0.184498 0.26987,0.336635 0.38285,0.473983 l 1.35254,-1.386176 c -0.51751,-0.529009 -0.55047,-1.802067 -0.59962,-3.109634 0.0185,-0.99876 -0.10792,-3.002339 1.14557,-3.292753 0.0783,-0.01135 0.15249,-0.01707 0.22273,-0.01746 0.49914,-0.0028 0.80015,0.26211 0.9816,0.659658 l 0.0157,-0.01192 c 0.0643,-0.04995 0.12923,-0.09999 0.19164,-0.150755 0.0312,-0.02538 0.0619,-0.05098 0.0916,-0.07666 0.0297,-0.02568 0.0581,-0.05147 0.0856,-0.07751 0.0274,-0.02604 0.0538,-0.05232 0.0784,-0.07878 0.0246,-0.02646 0.0476,-0.05311 0.0686,-0.08006 0.0209,-0.02695 0.0396,-0.05427 0.0562,-0.08177 0.0166,-0.02749 0.031,-0.05494 0.0426,-0.08304 0.006,-0.01405 0.0109,-0.02837 0.0153,-0.04259 0.004,-0.01422 0.008,-0.02862 0.011,-0.04301 0.003,-0.01439 0.006,-0.02887 0.007,-0.04344 0.002,-0.01457 0.002,-0.02911 0.002,-0.04387 -2.5e-4,-0.01475 -0.002,-0.02977 -0.003,-0.04471 -0.002,-0.01495 -0.005,-0.02999 -0.008,-0.04514 -0.004,-0.01516 -0.009,-0.0302 -0.0145,-0.04556 -0.006,-0.01536 -0.0123,-0.03084 -0.02,-0.04642 -0.007,-0.01558 -0.0162,-0.03146 -0.026,-0.04727 -0.01,-0.01581 -0.0209,-0.03165 -0.0328,-0.0477 -0.012,-0.01604 -0.025,-0.03226 -0.0391,-0.04855 -0.0142,-0.01628 -0.0294,-0.03244 -0.046,-0.04898 -0.0166,-0.01653 -0.0343,-0.03346 -0.0532,-0.05025 -0.019,-0.01679 -0.0394,-0.03362 -0.0609,-0.05068 -0.0215,-0.01706 -0.0444,-0.0342 -0.0686,-0.05153 -0.0241,-0.01733 -0.0494,-0.03477 -0.0762,-0.05238 -0.0794,-0.04742 -0.16148,-0.09564 -0.2436,-0.143941 -0.0821,-0.04831 -0.16429,-0.09694 -0.24359,-0.145644 -0.0793,-0.0487 -0.15562,-0.09746 -0.22656,-0.14607 -0.0354,-0.0243 -0.0699,-0.04821 -0.1022,-0.0724 -0.0323,-0.02419 -0.0626,-0.04838 -0.0911,-0.0724 -0.0285,-0.02401 -0.0552,-0.04819 -0.0792,-0.07197 -0.024,-0.02378 -0.0456,-0.04722 -0.0643,-0.07069 -0.0188,-0.02348 -0.0344,-0.04673 -0.0473,-0.06984 -0.007,-0.01155 -0.0122,-0.02303 -0.017,-0.0345 -0.005,-0.01145 -0.009,-0.02315 -0.012,-0.0345 -0.003,-0.01135 -0.006,-0.02242 -0.007,-0.03364 -0.002,-0.01123 -0.002,-0.02254 -0.002,-0.03364 5.1e-4,-0.01111 0.002,-0.02224 0.005,-0.03322 0.002,-0.01098 0.006,-0.02153 0.0102,-0.03236 0.004,-0.01084 0.01,-0.02168 0.0166,-0.03236 0.007,-0.01069 0.0146,-0.02141 0.0234,-0.03194 0.009,-0.01053 0.0186,-0.02115 0.0298,-0.03151 0.0111,-0.01037 0.0235,-0.02046 0.0371,-0.03066 0.0305,-0.02301 0.0598,-0.04597 0.0877,-0.06856 0.0279,-0.0226 0.0546,-0.04467 0.08,-0.06686 0.0255,-0.02219 0.0498,-0.04419 0.0728,-0.06601 0.0231,-0.02181 0.0452,-0.0437 0.066,-0.06515 0.0208,-0.02146 0.0405,-0.04276 0.0592,-0.06388 0.0187,-0.02111 0.0365,-0.04181 0.0532,-0.0626 0.0167,-0.02079 0.0325,-0.04168 0.0473,-0.06218 0.0148,-0.0205 0.0287,-0.04069 0.0417,-0.0609 0.0262,-0.04042 0.0487,-0.08026 0.0686,-0.119667 0.0199,-0.03941 0.0369,-0.07855 0.0515,-0.117111 0.0146,-0.03856 0.0269,-0.07669 0.0371,-0.114557 0.0102,-0.03787 0.0187,-0.07553 0.0255,-0.112853 0.007,-0.03732 0.0121,-0.07421 0.0166,-0.11115 0.004,-0.03694 0.008,-0.07358 0.011,-0.110298 0.006,-0.07343 0.0103,-0.146707 0.0166,-0.220169 0.003,-0.03673 0.007,-0.07375 0.012,-0.110724 0.005,-0.03698 0.0103,-0.07377 0.0175,-0.111149 0.007,-0.03737 0.0157,-0.07535 0.0264,-0.113279 0.01,-0.0354 0.022,-0.07088 0.0358,-0.106891 z" />
      <path
         id="path3191"
         style="fill:#008000;stroke:none;stroke-width:0.21804px;stroke-linecap:butt;stroke-linejoin:miter;stroke-opacity:1"
         d="m 186.32711,-52.456116 c -0.0138,0.03601 -0.0259,0.0715 -0.0358,0.106891 -0.0106,0.03793 -0.0192,0.07591 -0.0264,0.113279 -0.007,0.03737 -0.0128,0.07418 -0.0175,0.111149 -0.005,0.03698 -0.009,0.074 -0.0119,0.110724 -0.007,0.07346 -0.0105,0.146742 -0.0166,0.22017 -0.003,0.03671 -0.007,0.07336 -0.011,0.110298 -0.004,0.03694 -0.01,0.07382 -0.0167,0.11115 -0.007,0.03732 -0.0153,0.07499 -0.0255,0.112852 -0.0102,0.03787 -0.0225,0.076 -0.0371,0.114557 -0.0146,0.03856 -0.0317,0.0777 -0.0515,0.117111 -0.0199,0.03942 -0.0424,0.07925 -0.0686,0.119667 -0.0131,0.02021 -0.0269,0.04041 -0.0417,0.0609 -0.0148,0.0205 -0.0306,0.04139 -0.0473,0.06218 -0.0167,0.02079 -0.0345,0.04149 -0.0532,0.0626 -0.0187,0.02111 -0.0383,0.04242 -0.0592,0.06388 -0.0208,0.02145 -0.0429,0.04334 -0.066,0.06515 -0.0231,0.02181 -0.0474,0.04382 -0.0728,0.06601 -0.0255,0.02219 -0.0522,0.04427 -0.08,0.06686 -0.0279,0.0226 -0.0572,0.04556 -0.0877,0.06856 -0.0135,0.01019 -0.0259,0.0203 -0.0371,0.03066 -0.0111,0.01037 -0.0209,0.02098 -0.0298,0.03151 -0.009,0.01053 -0.0168,0.02125 -0.0234,0.03194 -0.007,0.01069 -0.0121,0.02153 -0.0166,0.03236 -0.004,0.01084 -0.007,0.02139 -0.0102,0.03236 -0.002,0.01098 -0.004,0.02211 -0.005,0.03322 -5.2e-4,0.01111 -7e-5,0.02242 0.002,0.03364 0.002,0.01123 0.003,0.02229 0.007,0.03364 0.003,0.01135 0.007,0.02303 0.012,0.0345 0.005,0.01145 0.0106,0.02293 0.0171,0.0345 0.0129,0.02311 0.0285,0.04636 0.0473,0.06984 0.0188,0.02348 0.0403,0.04692 0.0643,0.07069 0.024,0.02378 0.0507,0.04795 0.0792,0.07197 0.0285,0.02401 0.0588,0.04821 0.0911,0.0724 0.0323,0.02419 0.0667,0.04809 0.1022,0.0724 0.071,0.04861 0.14726,0.09737 0.22656,0.14607 0.0793,0.0487 0.16147,0.09734 0.24359,0.145644 0.0821,0.04831 0.16421,0.09652 0.2436,0.143942 0.0268,0.01761 0.0521,0.03505 0.0762,0.05238 0.0241,0.01733 0.0471,0.03447 0.0686,0.05153 0.0215,0.01706 0.042,0.03389 0.0609,0.05068 0.019,0.01679 0.0367,0.03371 0.0532,0.05025 0.0166,0.01653 0.0318,0.03269 0.046,0.04897 0.0142,0.01628 0.0272,0.0325 0.0392,0.04855 0.0119,0.01604 0.023,0.03189 0.0328,0.0477 0.01,0.01581 0.0183,0.03169 0.026,0.04727 0.007,0.01558 0.0143,0.03105 0.02,0.04642 0.006,0.01536 0.0106,0.03042 0.0145,0.04556 0.004,0.01516 0.007,0.03019 0.008,0.04514 0.002,0.01495 0.003,0.02996 0.003,0.04471 2.4e-4,0.01475 -3.2e-4,0.0293 -0.002,0.04387 -0.002,0.01457 -0.004,0.02905 -0.007,0.04344 -0.003,0.01439 -0.007,0.02879 -0.011,0.04301 -0.004,0.01422 -0.009,0.02853 -0.0153,0.04259 -0.0116,0.0281 -0.026,0.05555 -0.0426,0.08304 -0.0166,0.02749 -0.0353,0.05482 -0.0562,0.08177 -0.0209,0.02695 -0.044,0.0536 -0.0686,0.08006 -0.0246,0.02646 -0.0509,0.05274 -0.0784,0.07878 -0.0274,0.02604 -0.0559,0.05183 -0.0856,0.07751 -0.0297,0.02568 -0.0603,0.05128 -0.0916,0.07666 -0.0624,0.05076 -0.12735,0.100809 -0.19164,0.150755 l -0.0157,0.01192 c 0.33774,0.739936 0.25969,1.940343 0.26276,2.736154 0.0392,1.085569 0.0657,3.297363 -1.34785,3.280403 -0.28305,0.0073 -0.49892,-0.0864 -0.66519,-0.256368 l -1.35254,1.386176 c 1.02193,1.242389 0.75985,0.784872 0.14905,2.649705 -0.21648,0.838241 3.15504,3.565047 0.10477,4.903783 -1.75764,0.373639 -1.65124,0.502146 -2.20681,1.320167 l 4.80967,-0.10178 5.25554,0.0073 c -0.20424,-3.330081 1.09422,-5.214538 4.19047,-5.369675 l -0.0409,-14.935353 z" />
      <rect
         style="fill:none;stroke:#000000;stroke-width:0.26272;stroke-dasharray:none;stroke-opacity:0.995176"
         id="rect111-7-9-9"
         width="20.339539"
         height="20.339539"
         x="175.15111"
         y="-52.457199" />
      <path
         style="fill:#ffffff;stroke:none;stroke-width:0.21804px;stroke-linecap:butt;stroke-linejoin:miter;stroke-opacity:1"
         d="m 189.86908,-36.562553 c -1.07125,-0.04942 -1.14911,0.547609 -1.11305,1.232819 -0.0443,1.482631 0.26109,1.578795 0.4855,1.501333 0.7316,-0.2059 1.08663,-0.616011 1.21484,-1.338274 0.0438,-0.646098 0.38091,-1.513695 -0.58729,-1.395878 z"
         id="path1392"
         sodipodi:nodetypes="ccccc" />
      <path
         style="fill:none;stroke:#000000;stroke-width:0.200715px;stroke-linecap:butt;stroke-linejoin:miter;stroke-opacity:1"
         d="m 186.27201,-48.113067 c 0.51432,-0.399561 1.05782,-0.817318 0.20011,-1.380885 -0.63506,-0.379334 -1.44649,-0.794953 -1.01298,-1.121264 0.97715,-0.736382 0.58765,-1.253414 0.82899,-1.871699"
         id="path3058-1"
         sodipodi:nodetypes="cccc" />
      <path
         style="fill:none;stroke:#000000;stroke-width:0.21804px;stroke-linecap:butt;stroke-linejoin:miter;stroke-opacity:1"
         d="m 183.19797,-40.928579 1.34737,-1.390497"
         id="path3221" />
      <path
         style="fill:none;stroke:#000000;stroke-width:0.21804px;stroke-linecap:butt;stroke-linejoin:miter;stroke-opacity:1"
         d="m 178.47044,-38.503695 c 0.14376,-0.28334 0.34959,-0.343066 0.38524,-0.560367"
         id="path3228"
         sodipodi:nodetypes="cc" />
      <path
         style="fill:#ff0000;stroke:none;stroke-width:0.21804px;stroke-linecap:butt;stroke-linejoin:miter;stroke-opacity:1"
         d="m 178.84899,-39.04875 c -0.003,0.0026 -0.006,0.005 -0.009,0.0077 -0.0371,0.03346 -0.0733,0.06811 -0.10859,0.103483 -0.0354,0.03537 -0.0696,0.07141 -0.10306,0.108595 -0.0335,0.03718 -0.066,0.07564 -0.0975,0.114557 -0.0315,0.03891 -0.0622,0.07826 -0.0916,0.118815 -0.0135,0.01872 -0.0257,0.03844 -0.0387,0.05749 0.0683,-0.03129 0.13092,-0.03758 0.18568,-0.01448 -1.39297,2.877133 -2.22001,4.117598 1.38234,5.55535 1.69755,0.665857 5.90506,-2.769803 2.44103,-4.812223 -0.54738,-0.285914 2.37773,-2.399173 -2.67525,-1.260973 -0.27562,0.143734 -0.59171,0.128139 -0.88537,0.02172 z"
         id="path1388" />
    </g>
    <g
       id="g3497">
      <path
         id="rect111-7-9-9-0"
         style="fill:#0000ff;stroke:#000000;stroke-width:0.26272;stroke-dasharray:none;stroke-opacity:0.995176"
         d="m 207.67038,-52.457301 h -11.12696 v 20.339844 h 7.43882 l 5.1e-4,-0.02015 -1.35495,-0.01912 c -0.47023,-0.30973 -0.47512,-0.899402 -1.50637,-0.871782 -0.6605,0.0376 -1.73436,-1.542574 -1.94562,-1.754414 -0.52532,-0.477979 0.40044,-2.383021 0.60048,-3.574459 0.0472,-0.2952 0.31113,-0.598852 0.50798,-0.743624 1.1186,-0.617255 2.23519,-1.237997 3.34605,-1.869137 0.0712,-0.04734 0.15301,-0.06874 0.2434,-0.06873 0.18249,1.7e-5 0.4008,0.08842 0.63717,0.221175 l 1.43764,-1.489832 0.98547,-3.223059 -0.41393,-1.64176 1.14411,-0.940511 c 0.0643,-0.04995 0.1288,-0.100132 0.19121,-0.150895 0.0312,-0.02538 0.0623,-0.05132 0.092,-0.077 0.0297,-0.02568 0.0583,-0.05148 0.0858,-0.07751 0.0275,-0.02604 0.0535,-0.05209 0.078,-0.07855 0.0246,-0.02646 0.0478,-0.05315 0.0687,-0.0801 0.0209,-0.02695 0.0397,-0.05415 0.0563,-0.08165 0.0166,-0.0275 0.0308,-0.0551 0.0424,-0.0832 0.006,-0.01405 0.0111,-0.02868 0.0155,-0.04289 0.004,-0.01422 0.008,-0.0285 0.0109,-0.04289 0.003,-0.01439 0.005,-0.02884 0.007,-0.04341 0.001,-0.01457 0.002,-0.02917 0.002,-0.04393 -2.5e-4,-0.01476 -0.002,-0.02949 -0.004,-0.04444 -0.002,-0.01495 -0.005,-0.02981 -0.009,-0.04496 -0.004,-0.01515 -0.008,-0.03063 -0.014,-0.04599 -0.006,-0.01536 -0.0125,-0.03093 -0.0202,-0.04651 -0.008,-0.01558 -0.0166,-0.03122 -0.0264,-0.04703 -0.01,-0.01581 -0.0206,-0.0315 -0.0326,-0.04754 -0.012,-0.01604 -0.0251,-0.03229 -0.0393,-0.04858 -0.0142,-0.01629 -0.0294,-0.03256 -0.046,-0.04909 -0.0166,-0.01653 -0.0342,-0.03333 -0.0532,-0.05013 -0.019,-0.01679 -0.0395,-0.03358 -0.061,-0.05064 -0.0215,-0.01706 -0.0441,-0.03435 -0.0682,-0.05168 -0.0241,-0.01733 -0.0497,-0.0351 -0.0765,-0.05271 -0.0794,-0.04742 -0.16128,-0.09535 -0.24339,-0.143661 -0.0821,-0.0483 -0.1641,-0.09651 -0.2434,-0.14521 -0.0793,-0.0487 -0.15593,-0.09763 -0.22686,-0.146245 -0.0355,-0.0243 -0.0695,-0.04867 -0.1018,-0.07286 -0.0323,-0.02419 -0.063,-0.04833 -0.0915,-0.07235 -0.0285,-0.02401 -0.0551,-0.04805 -0.0791,-0.07183 -0.024,-0.02378 -0.0453,-0.04732 -0.0641,-0.0708 -0.0188,-0.02348 -0.0352,-0.04665 -0.0481,-0.06976 -0.006,-0.01156 -0.0117,-0.02317 -0.0165,-0.03462 -0.005,-0.01146 -0.009,-0.02276 -0.0119,-0.03411 -0.003,-0.01135 -0.005,-0.02288 -0.007,-0.03411 -0.001,-0.01123 -0.002,-0.02248 -0.002,-0.03359 5.2e-4,-0.01111 0.002,-0.0221 0.005,-0.03307 0.002,-0.01097 0.006,-0.02172 0.0103,-0.03256 0.005,-0.01083 0.01,-0.02135 0.0165,-0.03204 0.007,-0.01069 0.0144,-0.02151 0.0233,-0.03204 0.009,-0.01053 0.0188,-0.02116 0.03,-0.03152 0.0112,-0.01037 0.0237,-0.02029 0.0372,-0.03049 0.0305,-0.02301 0.0599,-0.04614 0.0878,-0.06873 0.0279,-0.02259 0.0547,-0.04499 0.0801,-0.06718 0.0254,-0.02219 0.0493,-0.04381 0.0724,-0.06563 0.0231,-0.02181 0.0453,-0.04366 0.0661,-0.06511 0.0208,-0.02145 0.0402,-0.04296 0.0589,-0.06408 0.0187,-0.02112 0.0365,-0.04173 0.0532,-0.06253 0.0167,-0.02079 0.0327,-0.04152 0.0475,-0.06201 0.0148,-0.02049 0.0288,-0.04077 0.0419,-0.06098 0.0131,-0.02021 0.0252,-0.04051 0.0367,-0.06046 0.0114,-0.01995 0.0221,-0.03972 0.032,-0.05943 0.0199,-0.03941 0.0366,-0.07823 0.0512,-0.116789 0.0146,-0.03856 0.027,-0.07686 0.0372,-0.114721 0.0102,-0.03786 0.0185,-0.07533 0.0253,-0.112655 0.007,-0.03732 0.0126,-0.07468 0.0171,-0.111621 0.004,-0.03694 0.008,-0.07336 0.0109,-0.110071 0.006,-0.07343 0.0102,-0.14668 0.0165,-0.220141 0.003,-0.03673 0.007,-0.07361 0.0119,-0.110588 0.005,-0.03697 0.0104,-0.07425 0.0176,-0.111621 0.007,-0.03737 0.0157,-0.07473 0.0264,-0.112655 0.008,-0.02819 0.0181,-0.05669 0.0284,-0.08527 z" />
      <path
         id="path3491"
         style="fill:#008000;stroke:#000000;stroke-width:0.26272;stroke-dasharray:none;stroke-opacity:0.995176"
         d="m 207.67038,-52.457301 c -0.0103,0.02857 -0.0205,0.05707 -0.0284,0.08527 -0.0106,0.03793 -0.0192,0.07528 -0.0264,0.112655 -0.007,0.03737 -0.0129,0.07465 -0.0176,0.111621 -0.005,0.03697 -0.009,0.07386 -0.0119,0.110588 -0.006,0.07346 -0.0104,0.146712 -0.0165,0.220141 -0.003,0.03671 -0.006,0.07313 -0.0109,0.110071 -0.004,0.03694 -0.0102,0.0743 -0.0171,0.111621 -0.007,0.03732 -0.0151,0.07479 -0.0253,0.112655 -0.0102,0.03786 -0.0226,0.07616 -0.0372,0.114721 -0.0146,0.03856 -0.0313,0.07738 -0.0512,0.116789 -0.01,0.01971 -0.0206,0.03948 -0.032,0.05943 -0.0114,0.01995 -0.0236,0.04025 -0.0367,0.06046 -0.0131,0.02021 -0.027,0.04049 -0.0419,0.06098 -0.0148,0.02049 -0.0308,0.04122 -0.0475,0.06201 -0.0167,0.02079 -0.0345,0.04141 -0.0532,0.06253 -0.0187,0.02111 -0.0381,0.04262 -0.0589,0.06408 -0.0208,0.02145 -0.0431,0.0433 -0.0661,0.06511 -0.0231,0.02182 -0.0469,0.04344 -0.0724,0.06563 -0.0254,0.02219 -0.0522,0.04459 -0.0801,0.06718 -0.0279,0.02259 -0.0573,0.04572 -0.0878,0.06873 -0.0135,0.0102 -0.026,0.02012 -0.0372,0.03049 -0.0112,0.01037 -0.0211,0.02099 -0.03,0.03152 -0.009,0.01053 -0.0166,0.02135 -0.0233,0.03204 -0.007,0.01069 -0.012,0.02121 -0.0165,0.03204 -0.005,0.01083 -0.008,0.02158 -0.0103,0.03256 -0.002,0.01097 -0.004,0.02197 -0.005,0.03307 -5.2e-4,0.01111 2e-4,0.02236 0.002,0.03359 0.001,0.01123 0.004,0.02276 0.007,0.03411 0.003,0.01135 0.007,0.02265 0.0119,0.03411 0.005,0.01146 0.0101,0.02307 0.0165,0.03462 0.0129,0.02312 0.0293,0.04629 0.0481,0.06976 0.0188,0.02348 0.0401,0.04702 0.0641,0.0708 0.024,0.02378 0.0506,0.04782 0.0791,0.07183 0.0285,0.02401 0.0591,0.04816 0.0915,0.07235 0.0323,0.02419 0.0663,0.04856 0.1018,0.07286 0.0709,0.04861 0.14756,0.09754 0.22686,0.146245 0.0793,0.0487 0.16128,0.0969 0.2434,0.14521 0.0821,0.04831 0.16401,0.09624 0.24339,0.143661 0.0268,0.01761 0.0524,0.03538 0.0765,0.05271 0.0241,0.01733 0.0467,0.03462 0.0682,0.05168 0.0215,0.01706 0.042,0.03385 0.061,0.05064 0.019,0.01679 0.0367,0.03359 0.0532,0.05013 0.0166,0.01654 0.0318,0.03281 0.046,0.04909 0.0142,0.01628 0.0273,0.03253 0.0393,0.04858 0.012,0.01604 0.0228,0.03173 0.0326,0.04754 0.01,0.01581 0.0186,0.03144 0.0264,0.04703 0.008,0.01558 0.0144,0.03114 0.0202,0.04651 0.006,0.01536 0.0102,0.03084 0.014,0.04599 0.004,0.01515 0.007,0.03001 0.009,0.04496 0.002,0.01495 0.003,0.02969 0.004,0.04444 2.4e-4,0.01475 -6.7e-4,0.02936 -0.002,0.04393 -0.001,0.01457 -0.004,0.02902 -0.007,0.04341 -0.003,0.01439 -0.006,0.02867 -0.0109,0.04289 -0.004,0.01422 -0.01,0.02884 -0.0155,0.04289 -0.0116,0.0281 -0.0257,0.0557 -0.0424,0.0832 -0.0166,0.02749 -0.0354,0.0547 -0.0563,0.08165 -0.0209,0.02695 -0.0442,0.05364 -0.0687,0.0801 -0.0245,0.02646 -0.0506,0.05251 -0.078,0.07855 -0.0275,0.02604 -0.0561,0.05183 -0.0858,0.07751 -0.0297,0.02568 -0.0608,0.05162 -0.092,0.077 -0.0624,0.05076 -0.12692,0.10095 -0.19121,0.150895 l -1.14411,0.940511 0.41393,1.64176 -0.98547,3.223059 -1.43764,1.489832 c 0.58309,0.327498 1.27963,0.934364 1.84536,1.219047 0.53666,0.153049 -0.32068,1.142568 -0.48162,1.714107 -0.13616,0.33949 0.85975,1.727335 1.28984,2.591056 0.2619,0.508017 -0.77541,0.930204 -1.16323,1.395264 -0.50254,0.509706 -0.0238,1.731297 -1.01906,1.775085 l -0.99943,-0.01447 -5.1e-4,0.02015 h 12.9005 v -20.339844 z" />
      <path
         style="fill:#ff0000;stroke:#000000;stroke-width:0.264583px;stroke-linecap:butt;stroke-linejoin:miter;stroke-opacity:1"
         d="m 200.28403,-39.101187 c -0.19685,0.144772 -0.46095,0.448368 -0.50819,0.743568 -0.20004,1.191442 -1.12543,3.096348 -0.60011,3.574327 0.21126,0.211842 1.28513,1.792221 1.94563,1.754618 1.03125,-0.02762 1.03588,0.562077 1.50611,0.871807 l 2.35431,0.03374 c 0.99521,-0.04379 0.5167,-1.265621 1.01924,-1.775327 0.38782,-0.46506 1.42537,-0.887163 1.16347,-1.39518 -0.43009,-0.863723 -1.42635,-2.251599 -1.29019,-2.591089 0.16094,-0.571541 1.01833,-1.560876 0.48167,-1.713925 -0.90864,-0.45724 -2.15662,-1.750447 -2.72592,-1.371719 -1.11086,0.63114 -2.22742,1.251925 -3.34602,1.86918 z"
         id="path3332"
         sodipodi:nodetypes="cccccccccccc" />
    </g>
  </g>
</svg>
